<?xml version="1.0" standalone="no"?>
 <!DOCTYPE svg PUBLIC "-//W3C//DTD SVG 1.1//EN" 
 "http://www.w3.org/Graphics/SVG/1.1/DTD/svg11.dtd"> 
<svg xmlns="http://www.w3.org/2000/svg" version="1.1" 
    width="41.9989cm" height="29.7002cm" viewBox="0 0 165350 116930 ">
<title>SVG Picture created as netdroid-Front.svg date 2013/11/12 10:07:49 </title>
  <desc>Picture generated by PCBNEW </desc>
<g style="fill:#000000; fill-opacity:1;stroke:#000000; stroke-opacity:1;
stroke-linecap:round; stroke-linejoin:round; "
 transform="translate(0 0) scale(1 1)">
</g>
<g style="fill:#000000; fill-opacity:0.0; 
stroke:#000000; stroke-width:59.0551; stroke-opacity:1; 
stroke-linecap:round; stroke-linejoin:round;">
</g>
<g style="fill:#000000; fill-opacity:1.0; 
stroke:#000000; stroke-width:59.0551; stroke-opacity:1; 
stroke-linecap:round; stroke-linejoin:round;">
<polyline style="fill-rule:evenodd;"
points="18252,35294
17861,35294
17861,35153
18252,35153
18252,35294
" /> 
<polyline style="fill-rule:evenodd;"
points="18252,34794
17861,34794
17861,34653
18252,34653
18252,34794
" /> 
<polyline style="fill-rule:evenodd;"
points="18252,34294
17861,34294
17861,34153
18252,34153
18252,34294
" /> 
<polyline style="fill-rule:evenodd;"
points="18252,33794
17861,33794
17861,33653
18252,33653
18252,33794
" /> 
<polyline style="fill-rule:evenodd;"
points="20752,33794
20361,33794
20361,33653
20752,33653
20752,33794
" /> 
<polyline style="fill-rule:evenodd;"
points="20752,34294
20361,34294
20361,34153
20752,34153
20752,34294
" /> 
<polyline style="fill-rule:evenodd;"
points="20752,34794
20361,34794
20361,34653
20752,34653
20752,34794
" /> 
<polyline style="fill-rule:evenodd;"
points="20752,35294
20361,35294
20361,35153
20752,35153
20752,35294
" /> 
<polyline style="fill-rule:evenodd;"
points="24785,33646
25176,33646
25176,33787
24785,33787
24785,33646
" /> 
<polyline style="fill-rule:evenodd;"
points="24785,34146
25176,34146
25176,34287
24785,34287
24785,34146
" /> 
<polyline style="fill-rule:evenodd;"
points="24785,34646
25176,34646
25176,34787
24785,34787
24785,34646
" /> 
<polyline style="fill-rule:evenodd;"
points="24785,35146
25176,35146
25176,35287
24785,35287
24785,35146
" /> 
<polyline style="fill-rule:evenodd;"
points="22285,35146
22676,35146
22676,35287
22285,35287
22285,35146
" /> 
<polyline style="fill-rule:evenodd;"
points="22285,34646
22676,34646
22676,34787
22285,34787
22285,34646
" /> 
<polyline style="fill-rule:evenodd;"
points="22285,34146
22676,34146
22676,34287
22285,34287
22285,34146
" /> 
<polyline style="fill-rule:evenodd;"
points="22285,33646
22676,33646
22676,33787
22285,33787
22285,33646
" /> 
<polyline style="fill-rule:evenodd;"
points="24744,17095
25135,17095
25135,17236
24744,17236
24744,17095
" /> 
<polyline style="fill-rule:evenodd;"
points="24744,17595
25135,17595
25135,17736
24744,17736
24744,17595
" /> 
<polyline style="fill-rule:evenodd;"
points="24744,18095
25135,18095
25135,18236
24744,18236
24744,18095
" /> 
<polyline style="fill-rule:evenodd;"
points="24744,18595
25135,18595
25135,18736
24744,18736
24744,18595
" /> 
<polyline style="fill-rule:evenodd;"
points="22244,18595
22635,18595
22635,18736
22244,18736
22244,18595
" /> 
<polyline style="fill-rule:evenodd;"
points="22244,18095
22635,18095
22635,18236
22244,18236
22244,18095
" /> 
<polyline style="fill-rule:evenodd;"
points="22244,17595
22635,17595
22635,17736
22244,17736
22244,17595
" /> 
<polyline style="fill-rule:evenodd;"
points="22244,17095
22635,17095
22635,17236
22244,17236
22244,17095
" /> 
<polyline style="fill-rule:evenodd;"
points="18160,18762
17769,18762
17769,18621
18160,18621
18160,18762
" /> 
<polyline style="fill-rule:evenodd;"
points="18160,18262
17769,18262
17769,18121
18160,18121
18160,18262
" /> 
<polyline style="fill-rule:evenodd;"
points="18160,17762
17769,17762
17769,17621
18160,17621
18160,17762
" /> 
<polyline style="fill-rule:evenodd;"
points="18160,17262
17769,17262
17769,17121
18160,17121
18160,17262
" /> 
<polyline style="fill-rule:evenodd;"
points="20660,17262
20269,17262
20269,17121
20660,17121
20660,17262
" /> 
<polyline style="fill-rule:evenodd;"
points="20660,17762
20269,17762
20269,17621
20660,17621
20660,17762
" /> 
<polyline style="fill-rule:evenodd;"
points="20660,18262
20269,18262
20269,18121
20660,18121
20660,18262
" /> 
<polyline style="fill-rule:evenodd;"
points="20660,18762
20269,18762
20269,18621
20660,18621
20660,18762
" /> 
<polyline style="fill-rule:evenodd;"
points="28755,29004
28755,29495
28264,29495
28264,29004
28755,29004
" /> 
<circle cx="27510" cy="29250" r="245.472" /> 
<circle cx="26510" cy="29250" r="245.472" /> 
<circle cx="25510" cy="29250" r="245.472" /> 
<polyline style="fill-rule:evenodd;"
points="16935,34973
16444,34973
16444,34482
16935,34482
16935,34973
" /> 
<circle cx="16690" cy="33728" r="245.472" /> 
<polyline style="fill-rule:evenodd;"
points="26214,17438
26705,17438
26705,17929
26214,17929
26214,17438
" /> 
<circle cx="26460" cy="18684" r="245.472" /> 
<polyline style="fill-rule:evenodd;"
points="16172,21405
16663,21405
16663,21896
16172,21896
16172,21405
" /> 
<circle cx="16418" cy="22651" r="245.472" /> 
<polyline style="fill-rule:evenodd;"
points="20565,22299
20565,21808
21056,21808
21056,22299
20565,22299
" /> 
<circle cx="21811" cy="22054" r="245.472" /> 
<polyline style="fill-rule:evenodd;"
points="16842,18439
16351,18439
16351,17948
16842,17948
16842,18439
" /> 
<circle cx="16597" cy="17194" r="245.472" /> 
<polyline style="fill-rule:evenodd;"
points="26186,33969
26677,33969
26677,34460
26186,34460
26186,33969
" /> 
<circle cx="26432" cy="35215" r="245.472" /> 
<polyline style="fill-rule:evenodd;"
points="21634,30665
21634,30174
22125,30174
22125,30665
21634,30665
" /> 
<circle cx="22880" cy="30420" r="245.472" /> 
<polyline style="fill-rule:evenodd;"
points="16687,25497
16196,25497
16196,25006
16687,25006
16687,25497
" /> 
<circle cx="16442" cy="24252" r="245.472" /> 
<polyline style="fill-rule:evenodd;"
points="17900,29995
17409,29995
17409,29504
17900,29504
17900,29995
" /> 
<circle cx="17655" cy="28750" r="245.472" /> 
<polyline style="fill-rule:evenodd;"
points="16695,29984
16204,29984
16204,29493
16695,29493
16695,29984
" /> 
<circle cx="16450" cy="28739" r="245.472" /> 
<polyline style="fill-rule:evenodd;"
points="14489,15531
15230,15531
15230,16072
14489,16072
14489,15531
" /> 
<polyline style="fill-rule:evenodd;"
points="14489,16831
15230,16831
15230,17372
14489,17372
14489,16831
" /> 
<polyline style="fill-rule:evenodd;"
points="18077,31557
18077,32298
17536,32298
17536,31557
18077,31557
" /> 
<polyline style="fill-rule:evenodd;"
points="16777,31557
16777,32298
16236,32298
16236,31557
16777,31557
" /> 
<polyline style="fill-rule:evenodd;"
points="14316,32027
15057,32027
15057,32568
14316,32568
14316,32027
" /> 
<polyline style="fill-rule:evenodd;"
points="14316,33327
15057,33327
15057,33868
14316,33868
14316,33327
" /> 
<polyline style="fill-rule:evenodd;"
points="15057,36398
14316,36398
14316,35857
15057,35857
15057,36398
" /> 
<polyline style="fill-rule:evenodd;"
points="15057,35098
14316,35098
14316,34557
15057,34557
15057,35098
" /> 
<polyline style="fill-rule:evenodd;"
points="18047,36277
18047,37018
17506,37018
17506,36277
18047,36277
" /> 
<polyline style="fill-rule:evenodd;"
points="16747,36277
16747,37018
16206,37018
16206,36277
16747,36277
" /> 
<polyline style="fill-rule:evenodd;"
points="17990,14899
17990,15640
17449,15640
17449,14899
17990,14899
" /> 
<polyline style="fill-rule:evenodd;"
points="16690,14899
16690,15640
16149,15640
16149,14899
16690,14899
" /> 
<polyline style="fill-rule:evenodd;"
points="15245,19817
14504,19817
14504,19276
15245,19276
15245,19817
" /> 
<polyline style="fill-rule:evenodd;"
points="15245,18517
14504,18517
14504,17976
15245,17976
15245,18517
" /> 
<polyline style="fill-rule:evenodd;"
points="18015,19591
18015,20332
17474,20332
17474,19591
18015,19591
" /> 
<polyline style="fill-rule:evenodd;"
points="16715,19591
16715,20332
16174,20332
16174,19591
16715,19591
" /> 
<polyline style="fill-rule:evenodd;"
points="25079,20772
25079,20031
25620,20031
25620,20772
25079,20772
" /> 
<polyline style="fill-rule:evenodd;"
points="26379,20772
26379,20031
26920,20031
26920,20772
26379,20772
" /> 
<polyline style="fill-rule:evenodd;"
points="28630,20312
27889,20312
27889,19771
28630,19771
28630,20312
" /> 
<polyline style="fill-rule:evenodd;"
points="28630,19012
27889,19012
27889,18471
28630,18471
28630,19012
" /> 
<polyline style="fill-rule:evenodd;"
points="27859,16021
28600,16021
28600,16562
27859,16562
27859,16021
" /> 
<polyline style="fill-rule:evenodd;"
points="27859,17321
28600,17321
28600,17862
27859,17862
27859,17321
" /> 
<polyline style="fill-rule:evenodd;"
points="25099,16162
25099,15421
25640,15421
25640,16162
25099,16162
" /> 
<polyline style="fill-rule:evenodd;"
points="26399,16162
26399,15421
26940,15421
26940,16162
26399,16162
" /> 
<polyline style="fill-rule:evenodd;"
points="28714,36934
27973,36934
27973,36393
28714,36393
28714,36934
" /> 
<polyline style="fill-rule:evenodd;"
points="28714,35634
27973,35634
27973,35093
28714,35093
28714,35634
" /> 
<polyline style="fill-rule:evenodd;"
points="25008,37464
25008,36723
25549,36723
25549,37464
25008,37464
" /> 
<polyline style="fill-rule:evenodd;"
points="26308,37464
26308,36723
26849,36723
26849,37464
26308,37464
" /> 
<polyline style="fill-rule:evenodd;"
points="27973,32498
28714,32498
28714,33039
27973,33039
27973,32498
" /> 
<polyline style="fill-rule:evenodd;"
points="27973,33798
28714,33798
28714,34339
27973,34339
27973,33798
" /> 
<polyline style="fill-rule:evenodd;"
points="25008,32664
25008,31923
25549,31923
25549,32664
25008,32664
" /> 
<polyline style="fill-rule:evenodd;"
points="26308,32664
26308,31923
26849,31923
26849,32664
26308,32664
" /> 
<polyline style="fill-rule:evenodd;"
points="19851,21786
19851,22277
19560,22277
19560,21786
19851,21786
" /> 
<polyline style="fill-rule:evenodd;"
points="19101,21786
19101,22277
18810,22277
18810,21786
19101,21786
" /> 
<polyline style="fill-rule:evenodd;"
points="22748,22299
22748,21808
23039,21808
23039,22299
22748,22299
" /> 
<polyline style="fill-rule:evenodd;"
points="23498,22299
23498,21808
23789,21808
23789,22299
23498,22299
" /> 
<polyline style="fill-rule:evenodd;"
points="25719,22815
25719,22324
26010,22324
26010,22815
25719,22815
" /> 
<polyline style="fill-rule:evenodd;"
points="26469,22815
26469,22324
26760,22324
26760,22815
26469,22815
" /> 
<polyline style="fill-rule:evenodd;"
points="27459,22815
27459,22324
27750,22324
27750,22815
27459,22815
" /> 
<polyline style="fill-rule:evenodd;"
points="28209,22815
28209,22324
28500,22324
28500,22815
28209,22815
" /> 
<polyline style="fill-rule:evenodd;"
points="20344,37070
20344,36579
20635,36579
20635,37070
20344,37070
" /> 
<polyline style="fill-rule:evenodd;"
points="21094,37070
21094,36579
21385,36579
21385,37070
21094,37070
" /> 
<polyline style="fill-rule:evenodd;"
points="21949,37065
21949,36574
22240,36574
22240,37065
21949,37065
" /> 
<polyline style="fill-rule:evenodd;"
points="22699,37065
22699,36574
22990,36574
22990,37065
22699,37065
" /> 
<polyline style="fill-rule:evenodd;"
points="22019,29589
22019,29098
22310,29098
22310,29589
22019,29589
" /> 
<polyline style="fill-rule:evenodd;"
points="22769,29589
22769,29098
23060,29098
23060,29589
22769,29589
" /> 
<polyline style="fill-rule:evenodd;"
points="21904,32045
21904,31554
22195,31554
22195,32045
21904,32045
" /> 
<polyline style="fill-rule:evenodd;"
points="22654,32045
22654,31554
22945,31554
22945,32045
22654,32045
" /> 
<polyline style="fill-rule:evenodd;"
points="14348,24935
14839,24935
14839,25226
14348,25226
14348,24935
" /> 
<polyline style="fill-rule:evenodd;"
points="14348,25685
14839,25685
14839,25976
14348,25976
14348,25685
" /> 
<polyline style="fill-rule:evenodd;"
points="14861,24458
14370,24458
14370,24167
14861,24167
14861,24458
" /> 
<polyline style="fill-rule:evenodd;"
points="14861,23708
14370,23708
14370,23417
14861,23417
14861,23708
" /> 
<polyline style="fill-rule:evenodd;"
points="14412,22906
14412,22415
14703,22415
14703,22906
14412,22906
" /> 
<polyline style="fill-rule:evenodd;"
points="15162,22906
15162,22415
15453,22415
15453,22906
15162,22906
" /> 
<polyline style="fill-rule:evenodd;"
points="15438,21410
15438,21901
15147,21901
15147,21410
15438,21410
" /> 
<polyline style="fill-rule:evenodd;"
points="14688,21410
14688,21901
14397,21901
14397,21410
14688,21410
" /> 
<polyline style="fill-rule:evenodd;"
points="19606,26962
19606,26923
19861,26923
19861,26962
19606,26962
" /> 
<polyline style="fill-rule:evenodd;"
points="19606,26765
19606,26726
19861,26726
19861,26765
19606,26765
" /> 
<polyline style="fill-rule:evenodd;"
points="19606,26568
19606,26529
19861,26529
19861,26568
19606,26568
" /> 
<polyline style="fill-rule:evenodd;"
points="19606,26371
19606,26332
19861,26332
19861,26371
19606,26371
" /> 
<polyline style="fill-rule:evenodd;"
points="19606,26175
19606,26136
19861,26136
19861,26175
19606,26175
" /> 
<polyline style="fill-rule:evenodd;"
points="19606,25978
19606,25939
19861,25939
19861,25978
19606,25978
" /> 
<polyline style="fill-rule:evenodd;"
points="19606,25782
19606,25743
19861,25743
19861,25782
19606,25782
" /> 
<polyline style="fill-rule:evenodd;"
points="19606,25585
19606,25546
19861,25546
19861,25585
19606,25585
" /> 
<polyline style="fill-rule:evenodd;"
points="19606,25389
19606,25350
19861,25350
19861,25389
19606,25389
" /> 
<polyline style="fill-rule:evenodd;"
points="19606,25192
19606,25153
19861,25153
19861,25192
19606,25192
" /> 
<polyline style="fill-rule:evenodd;"
points="19606,24995
19606,24956
19861,24956
19861,24995
19606,24995
" /> 
<polyline style="fill-rule:evenodd;"
points="19606,24798
19606,24759
19861,24759
19861,24798
19606,24798
" /> 
<polyline style="fill-rule:evenodd;"
points="20245,24375
20245,24120
20284,24120
20284,24375
20245,24375
" /> 
<polyline style="fill-rule:evenodd;"
points="20442,24375
20442,24120
20481,24120
20481,24375
20442,24375
" /> 
<polyline style="fill-rule:evenodd;"
points="20639,24375
20639,24120
20678,24120
20678,24375
20639,24375
" /> 
<polyline style="fill-rule:evenodd;"
points="20836,24375
20836,24120
20875,24120
20875,24375
20836,24375
" /> 
<polyline style="fill-rule:evenodd;"
points="21032,24375
21032,24120
21071,24120
21071,24375
21032,24375
" /> 
<polyline style="fill-rule:evenodd;"
points="21229,24375
21229,24120
21268,24120
21268,24375
21229,24375
" /> 
<polyline style="fill-rule:evenodd;"
points="21425,24375
21425,24120
21464,24120
21464,24375
21425,24375
" /> 
<polyline style="fill-rule:evenodd;"
points="21622,24375
21622,24120
21661,24120
21661,24375
21622,24375
" /> 
<polyline style="fill-rule:evenodd;"
points="21818,24375
21818,24120
21857,24120
21857,24375
21818,24375
" /> 
<polyline style="fill-rule:evenodd;"
points="22015,24375
22015,24120
22054,24120
22054,24375
22015,24375
" /> 
<polyline style="fill-rule:evenodd;"
points="22212,24375
22212,24120
22251,24120
22251,24375
22212,24375
" /> 
<polyline style="fill-rule:evenodd;"
points="22409,24375
22409,24120
22448,24120
22448,24375
22409,24375
" /> 
<polyline style="fill-rule:evenodd;"
points="22832,26962
22832,26923
23087,26923
23087,26962
22832,26962
" /> 
<polyline style="fill-rule:evenodd;"
points="22832,26765
22832,26726
23087,26726
23087,26765
22832,26765
" /> 
<polyline style="fill-rule:evenodd;"
points="22832,26568
22832,26529
23087,26529
23087,26568
22832,26568
" /> 
<polyline style="fill-rule:evenodd;"
points="22832,26371
22832,26332
23087,26332
23087,26371
22832,26371
" /> 
<polyline style="fill-rule:evenodd;"
points="22832,26175
22832,26136
23087,26136
23087,26175
22832,26175
" /> 
<polyline style="fill-rule:evenodd;"
points="22832,25978
22832,25939
23087,25939
23087,25978
22832,25978
" /> 
<polyline style="fill-rule:evenodd;"
points="22832,25782
22832,25743
23087,25743
23087,25782
22832,25782
" /> 
<polyline style="fill-rule:evenodd;"
points="22832,25585
22832,25546
23087,25546
23087,25585
22832,25585
" /> 
<polyline style="fill-rule:evenodd;"
points="22832,25389
22832,25350
23087,25350
23087,25389
22832,25389
" /> 
<polyline style="fill-rule:evenodd;"
points="22832,25192
22832,25153
23087,25153
23087,25192
22832,25192
" /> 
<polyline style="fill-rule:evenodd;"
points="22832,24995
22832,24956
23087,24956
23087,24995
22832,24995
" /> 
<polyline style="fill-rule:evenodd;"
points="22832,24798
22832,24759
23087,24759
23087,24798
22832,24798
" /> 
<polyline style="fill-rule:evenodd;"
points="20245,27601
20245,27346
20284,27346
20284,27601
20245,27601
" /> 
<polyline style="fill-rule:evenodd;"
points="20442,27601
20442,27346
20481,27346
20481,27601
20442,27601
" /> 
<polyline style="fill-rule:evenodd;"
points="20639,27601
20639,27346
20678,27346
20678,27601
20639,27601
" /> 
<polyline style="fill-rule:evenodd;"
points="20836,27601
20836,27346
20875,27346
20875,27601
20836,27601
" /> 
<polyline style="fill-rule:evenodd;"
points="21032,27601
21032,27346
21071,27346
21071,27601
21032,27601
" /> 
<polyline style="fill-rule:evenodd;"
points="21229,27601
21229,27346
21268,27346
21268,27601
21229,27601
" /> 
<polyline style="fill-rule:evenodd;"
points="21425,27601
21425,27346
21464,27346
21464,27601
21425,27601
" /> 
<polyline style="fill-rule:evenodd;"
points="21622,27601
21622,27346
21661,27346
21661,27601
21622,27601
" /> 
<polyline style="fill-rule:evenodd;"
points="21818,27601
21818,27346
21857,27346
21857,27601
21818,27601
" /> 
<polyline style="fill-rule:evenodd;"
points="22015,27601
22015,27346
22054,27346
22054,27601
22015,27601
" /> 
<polyline style="fill-rule:evenodd;"
points="22212,27601
22212,27346
22251,27346
22251,27601
22212,27601
" /> 
<polyline style="fill-rule:evenodd;"
points="22409,27601
22409,27346
22448,27346
22448,27601
22409,27601
" /> 
<polyline style="fill-rule:evenodd;"
points="22635,38874
22635,39365
22144,39365
22144,38874
22635,38874
" /> 
<circle cx="21390" cy="39120" r="245.472" /> 
<circle cx="20390" cy="39120" r="245.472" /> 
<polyline style="fill-rule:evenodd;"
points="27280,23934
27280,24425
26789,24425
26789,23934
27280,23934
" /> 
<circle cx="26035" cy="24180" r="245.472" /> 
<polyline style="fill-rule:evenodd;"
points="26240,26725
25749,26725
25749,26234
26240,26234
26240,26725
" /> 
<circle cx="25995" cy="25480" r="245.472" /> 
<polyline style="fill-rule:evenodd;"
points="28355,26695
27864,26695
27864,26204
28355,26204
28355,26695
" /> 
<circle cx="28110" cy="25450" r="245.472" /> 
<polyline style="fill-rule:evenodd;"
points="18894,28474
19385,28474
19385,28965
18894,28965
18894,28474
" /> 
<circle cx="19140" cy="29720" r="245.472" /> 
<polyline style="fill-rule:evenodd;"
points="22040,28728
22040,28237
22331,28237
22331,28728
22040,28728
" /> 
<polyline style="fill-rule:evenodd;"
points="22790,28728
22790,28237
23081,28237
23081,28728
22790,28728
" /> 
<polyline style="fill-rule:evenodd;"
points="17874,25789
18365,25789
18365,26080
17874,26080
17874,25789
" /> 
<polyline style="fill-rule:evenodd;"
points="17874,26539
18365,26539
18365,26830
17874,26830
17874,26539
" /> 
<polyline style="fill-rule:evenodd;"
points="22150,37464
22150,37955
21859,37955
21859,37464
22150,37464
" /> 
<polyline style="fill-rule:evenodd;"
points="21400,37464
21400,37955
21109,37955
21109,37464
21400,37464
" /> 
<polyline style="fill-rule:evenodd;"
points="18316,23905
18316,23414
18607,23414
18607,23905
18316,23905
" /> 
<polyline style="fill-rule:evenodd;"
points="19066,23905
19066,23414
19357,23414
19357,23905
19066,23905
" /> 
<polyline style="fill-rule:evenodd;"
points="21071,20554
21071,20063
21562,20063
21562,20554
21071,20554
" /> 
<polyline style="fill-rule:evenodd;"
points="24334,24825
24334,24334
24825,24334
24825,24825
24334,24825
" /> 
<polyline style="fill-rule:evenodd;"
points="23610,28847
23610,28356
24101,28356
24101,28847
23610,28847
" /> 
<polyline style="fill-rule:evenodd;"
points="16211,27237
16211,26746
16702,26746
16702,27237
16211,27237
" /> 
<polyline style="fill-rule:evenodd;"
points="18904,37945
18904,37454
19395,37454
19395,37945
18904,37945
" /> 
<polyline style="fill-rule:evenodd;"
points="16434,38855
16434,38364
16925,38364
16925,38855
16434,38855
" /> 
<polyline style="fill-rule:evenodd;"
points="21284,15265
21284,14774
21775,14774
21775,15265
21284,15265
" /> 
<polyline style="fill-rule:evenodd;"
points="23604,39380
23604,38889
24095,38889
24095,39380
23604,39380
" /> 
</g>
<g style="fill:#000000; fill-opacity:1.0; 
stroke:#000000; stroke-width:393.701; stroke-opacity:1; 
stroke-linecap:round; stroke-linejoin:round;">
<path d="M20390 39120
L20390 39990
" />
<path d="M29087 34717
L28314 34717
" />
<path d="M29344 34974
L29087 34717
" />
<path d="M29344 37366
L29344 34974
" />
<path d="M26500 40210
L29344 37366
" />
<path d="M20610 40210
L26500 40210
" />
<path d="M20390 39990
L20610 40210
" />
<path d="M16680 38610
L15120 38610
" />
<path d="M14076 34224
L14713 34224
" />
<path d="M13755 34545
L14076 34224
" />
<path d="M13755 37245
L13755 34545
" />
<path d="M15120 38610
L13755 37245
" />
<path d="M20390 39120
L17190 39120
" />
<path d="M17190 39120
L16680 38610
" />
<path d="M21530 15020
L19920 15020
" />
<path d="M19920 15020
L19120 14220
" />
<path d="M19120 14220
L14715 14220
" />
<path d="M14715 14220
L13734 15201
" />
<path d="M13734 15201
L13734 17514
" />
<path d="M13734 17514
L13912 17692
" />
<path d="M13912 17692
L14898 17692
" />
<path d="M21530 15020
L23425 15020
" />
<path d="M23425 15020
L23745 14700
" />
<path d="M23745 14700
L28455 14700
" />
<path d="M28455 14700
L29330 15575
" />
<path d="M29330 15575
L29330 17976
" />
<path d="M29330 17976
L29140 18166
" />
<path d="M29140 18166
L28154 18166
" />
</g>
<g style="fill:#000000; fill-opacity:1.0; 
stroke:#000000; stroke-width:196.85; stroke-opacity:1; 
stroke-linecap:round; stroke-linejoin:round;">
<path d="M17965 17692
L14898 17692
" />
<path d="M14898 17692
L14875 17715
" />
<path d="M24940 18166
L28154 18166
" />
<path d="M28154 18166
L28230 18090
" />
<path d="M28230 17592
L28230 18090
" />
<path d="M28230 18090
L28230 18712
" />
<path d="M28230 18712
L28260 18742
" />
<path d="M14875 18247
L14875 17715
" />
<path d="M14875 17715
L14875 17650
" />
<path d="M14875 17650
L14875 17117
" />
<path d="M14875 17117
L14860 17102
" />
<path d="M24981 34717
L28314 34717
" />
<path d="M28314 34717
L28344 34747
" />
<path d="M18057 34224
L14713 34224
" />
<path d="M14713 34224
L14687 34198
" />
<path d="M14687 34828
L14687 34198
" />
<path d="M14687 34198
L14687 33598
" />
<path d="M28344 35364
L28344 34747
" />
<path d="M28344 34747
L28344 34069
" />
</g>
<g style="fill:#000000; fill-opacity:1.0; 
stroke:#000000; stroke-width:92.5197; stroke-opacity:1; 
stroke-linecap:round; stroke-linejoin:round;">
<path d="M21445 24248
L21445 23417
" />
<path d="M22163 18666
L22440 18666
" />
<path d="M22055 18774
L22163 18666
" />
<path d="M22055 19099
L22055 18774
" />
<path d="M24409 21453
L22055 19099
" />
<path d="M24409 22526
L24409 21453
" />
<path d="M24024 22911
L24409 22526
" />
<path d="M21951 22911
L24024 22911
" />
<path d="M21445 23417
L21951 22911
" />
<path d="M20811 22054
L20811 22489
" />
<path d="M21052 22730
L21052 24248
" />
<path d="M20811 22489
L21052 22730
" />
</g>
<g style="fill:#000000; fill-opacity:1.0; 
stroke:#000000; stroke-width:196.85; stroke-opacity:1; 
stroke-linecap:round; stroke-linejoin:round;">
<path d="M20811 22054
L19728 22054
" />
<path d="M19728 22054
L19706 22032
" />
</g>
<g style="fill:#000000; fill-opacity:1.0; 
stroke:#000000; stroke-width:92.5197; stroke-opacity:1; 
stroke-linecap:round; stroke-linejoin:round;">
<path d="M22960 26352
L23489 26352
" />
<path d="M28510 28377
L28510 29250
" />
<path d="M27937 27804
L28510 28377
" />
<path d="M24941 27804
L27937 27804
" />
<path d="M23489 26352
L24941 27804
" />
<path d="M22960 26943
L23121 26943
" />
<path d="M25510 28842
L25510 29250
" />
<path d="M25200 28532
L25510 28842
" />
<path d="M24710 28532
L25200 28532
" />
<path d="M23121 26943
L24710 28532
" />
<path d="M22960 26746
L23204 26746
" />
<path d="M26510 28631
L26510 29250
" />
<path d="M26159 28280
L26510 28631
" />
<path d="M24738 28280
L26159 28280
" />
<path d="M23204 26746
L24738 28280
" />
<path d="M22960 26549
L23336 26549
" />
<path d="M27510 28378
L27510 29250
" />
<path d="M27181 28049
L27510 28378
" />
<path d="M24836 28049
L27181 28049
" />
<path d="M23336 26549
L24836 28049
" />
<path d="M22232 24248
L22232 23718
" />
<path d="M25450 22570
L25865 22570
" />
<path d="M24790 23230
L25450 22570
" />
<path d="M22720 23230
L24790 23230
" />
<path d="M22232 23718
L22720 23230
" />
<path d="M19140 29720
L19546 29720
" />
<path d="M20265 28581
L20265 27474
" />
<path d="M19968 28878
L20265 28581
" />
<path d="M19968 29298
L19968 28878
" />
<path d="M19546 29720
L19968 29298
" />
<path d="M19734 26943
L19434 26943
" />
<path d="M19140 27237
L19140 28720
" />
<path d="M19434 26943
L19140 27237
" />
<path d="M21249 27474
L21249 28647
" />
<path d="M22131 35217
L22481 35217
" />
<path d="M21785 34871
L22131 35217
" />
<path d="M21785 33237
L21785 34871
" />
<path d="M20727 32179
L21785 33237
" />
<path d="M20727 29169
L20727 32179
" />
<path d="M21249 28647
L20727 29169
" />
<path d="M21445 27474
L21445 28775
" />
<path d="M22135 34217
L22481 34217
" />
<path d="M22022 34104
L22135 34217
" />
<path d="M22022 33173
L22022 34104
" />
<path d="M20944 32095
L22022 33173
" />
<path d="M20944 29276
L20944 32095
" />
<path d="M21445 28775
L20944 29276
" />
<path d="M20856 24248
L20856 23541
" />
<path d="M21038 17192
L20465 17192
" />
<path d="M21240 17394
L21038 17192
" />
<path d="M21240 19350
L21240 17394
" />
<path d="M20910 19680
L21240 19350
" />
<path d="M20160 19680
L20910 19680
" />
<path d="M18390 21450
L20160 19680
" />
<path d="M18390 22458
L18390 21450
" />
<path d="M18591 22659
L18390 22458
" />
<path d="M19974 22659
L18591 22659
" />
<path d="M20856 23541
L19974 22659
" />
<path d="M19734 26549
L19196 26549
" />
<path d="M16450 28329
L16450 28739
" />
<path d="M16821 27958
L16450 28329
" />
<path d="M17787 27958
L16821 27958
" />
<path d="M19196 26549
L17787 27958
" />
<path d="M19734 26746
L19335 26746
" />
<path d="M17655 28426
L17655 28750
" />
<path d="M19335 26746
L17655 28426
" />
<path d="M21249 24248
L21249 23278
" />
<path d="M22060 17666
L22440 17666
" />
<path d="M21794 17932
L22060 17666
" />
<path d="M21794 19226
L21794 17932
" />
<path d="M24180 21612
L21794 19226
" />
<path d="M24180 22433
L24180 21612
" />
<path d="M23912 22701
L24180 22433
" />
<path d="M21826 22701
L23912 22701
" />
<path d="M21249 23278
L21826 22701
" />
<path d="M25995 26480
L24710 26480
" />
<path d="M23403 25173
L22960 25173
" />
<path d="M24710 26480
L23403 25173
" />
<path d="M22960 25763
L23607 25763
" />
<path d="M27624 25450
L28110 25450
" />
<path d="M27405 25669
L27624 25450
" />
<path d="M27405 27027
L27405 25669
" />
<path d="M27181 27251
L27405 27027
" />
<path d="M25095 27251
L27181 27251
" />
<path d="M23607 25763
L25095 27251
" />
<path d="M28110 26450
L28110 27090
" />
<path d="M23426 25959
L22960 25959
" />
<path d="M24977 27510
L23426 25959
" />
<path d="M27690 27510
L24977 27510
" />
<path d="M28110 27090
L27690 27510
" />
<path d="M25995 25480
L25995 25077
" />
<path d="M22429 23942
L22429 24248
" />
<path d="M22837 23534
L22429 23942
" />
<path d="M26194 23534
L22837 23534
" />
<path d="M26551 23891
L26194 23534
" />
<path d="M26551 24521
L26551 23891
" />
<path d="M25995 25077
L26551 24521
" />
<path d="M20659 24248
L20659 23676
" />
<path d="M20870 18192
L20465 18192
" />
<path d="M20975 18297
L20870 18192
" />
<path d="M20975 19120
L20975 18297
" />
<path d="M20700 19395
L20975 19120
" />
<path d="M20039 19395
L20700 19395
" />
<path d="M18144 21290
L20039 19395
" />
<path d="M18144 22554
L18144 21290
" />
<path d="M18494 22904
L18144 22554
" />
<path d="M19887 22904
L18494 22904
" />
<path d="M20659 23676
L19887 22904
" />
</g>
<g style="fill:#000000; fill-opacity:1.0; 
stroke:#000000; stroke-width:196.85; stroke-opacity:1; 
stroke-linecap:round; stroke-linejoin:round;">
<path d="M21811 22054
L22894 22054
" />
<path d="M22880 30420
L22880 30780
" />
<path d="M22050 31250
L22050 31800
" />
<path d="M22200 31100
L22050 31250
" />
<path d="M22560 31100
L22200 31100
" />
<path d="M22880 30780
L22560 31100
" />
</g>
<g style="fill:#000000; fill-opacity:1.0; 
stroke:#000000; stroke-width:92.5197; stroke-opacity:1; 
stroke-linecap:round; stroke-linejoin:round;">
<path d="M19734 25763
L19260 25763
" />
<path d="M16939 22651
L16418 22651
" />
<path d="M17164 22876
L16939 22651
" />
<path d="M17164 23667
L17164 22876
" />
<path d="M19260 25763
L17164 23667
" />
</g>
<g style="fill:#000000; fill-opacity:1.0; 
stroke:#000000; stroke-width:196.85; stroke-opacity:1; 
stroke-linecap:round; stroke-linejoin:round;">
<path d="M16418 22651
L15318 22651
" />
<path d="M15318 22651
L15308 22661
" />
<path d="M22165 29344
L22165 30135
" />
<path d="M22165 30135
L21880 30420
" />
</g>
<g style="fill:#000000; fill-opacity:1.0; 
stroke:#000000; stroke-width:92.5197; stroke-opacity:1; 
stroke-linecap:round; stroke-linejoin:round;">
<path d="M21642 27474
L21642 29195
" />
<path d="M21791 29344
L22165 29344
" />
<path d="M21642 29195
L21791 29344
" />
</g>
<g style="fill:#000000; fill-opacity:1.0; 
stroke:#000000; stroke-width:196.85; stroke-opacity:1; 
stroke-linecap:round; stroke-linejoin:round;">
<path d="M17965 17192
L16599 17192
" />
<path d="M16599 17192
L16597 17194
" />
<path d="M16420 15270
L15392 15270
" />
<path d="M15392 15270
L14860 15802
" />
<path d="M16420 15270
L16420 17017
" />
<path d="M16420 17017
L16597 17194
" />
<path d="M16477 36648
L16477 34941
" />
<path d="M16477 34941
L16690 34728
" />
<path d="M16477 36648
L15207 36648
" />
<path d="M15207 36648
L14687 36128
" />
<path d="M16690 34728
L18053 34728
" />
<path d="M18053 34728
L18057 34724
" />
<path d="M16507 31928
L16507 33545
" />
<path d="M16507 33545
L16690 33728
" />
<path d="M16507 31928
L15057 31928
" />
<path d="M15057 31928
L14687 32298
" />
<path d="M16690 33728
L18053 33728
" />
<path d="M18053 33728
L18057 33724
" />
<path d="M17965 18192
L16599 18192
" />
<path d="M16599 18192
L16597 18194
" />
<path d="M16445 19962
L15290 19962
" />
<path d="M15290 19962
L14875 19547
" />
<path d="M16445 19962
L16445 18346
" />
<path d="M16445 18346
L16597 18194
" />
<path d="M21240 36825
L22090 36825
" />
<path d="M22090 36825
L22095 36820
" />
<path d="M26670 15792
L26670 17474
" />
<path d="M26670 17474
L26460 17684
" />
<path d="M26670 15792
L27730 15792
" />
<path d="M27730 15792
L28230 16292
" />
<path d="M24940 17666
L26442 17666
" />
<path d="M26442 17666
L26460 17684
" />
<path d="M26650 20402
L26650 18874
" />
<path d="M26650 18874
L26460 18684
" />
<path d="M26650 20402
L27900 20402
" />
<path d="M27900 20402
L28260 20042
" />
<path d="M24940 18666
L26442 18666
" />
<path d="M26442 18666
L26460 18684
" />
<path d="M26579 32294
L26579 34068
" />
<path d="M26579 34068
L26432 34215
" />
<path d="M26579 32294
L27869 32294
" />
<path d="M27869 32294
L28344 32769
" />
<path d="M24981 34217
L26430 34217
" />
<path d="M26430 34217
L26432 34215
" />
<path d="M16418 21651
L15298 21651
" />
<path d="M15298 21651
L15293 21656
" />
</g>
<g style="fill:#000000; fill-opacity:1.0; 
stroke:#000000; stroke-width:92.5197; stroke-opacity:1; 
stroke-linecap:round; stroke-linejoin:round;">
<path d="M19734 25566
L19511 25566
" />
<path d="M17001 21651
L16418 21651
" />
<path d="M17400 22050
L17001 21651
" />
<path d="M17400 23455
L17400 22050
" />
<path d="M19511 25566
L17400 23455
" />
</g>
<g style="fill:#000000; fill-opacity:1.0; 
stroke:#000000; stroke-width:196.85; stroke-opacity:1; 
stroke-linecap:round; stroke-linejoin:round;">
<path d="M26579 37094
L26579 35362
" />
<path d="M26579 35362
L26432 35215
" />
<path d="M26579 37094
L27914 37094
" />
<path d="M27914 37094
L28344 36664
" />
<path d="M24981 35217
L26430 35217
" />
<path d="M26430 35217
L26432 35215
" />
<path d="M26615 22570
L27605 22570
" />
</g>
<g style="fill:#000000; fill-opacity:1.0; 
stroke:#000000; stroke-width:92.5197; stroke-opacity:1; 
stroke-linecap:round; stroke-linejoin:round;">
<path d="M21052 27474
L21052 28494
" />
<path d="M21143 34724
L20557 34724
" />
<path d="M21518 34349
L21143 34724
" />
<path d="M21518 33322
L21518 34349
" />
<path d="M20489 32293
L21518 33322
" />
<path d="M20489 29057
L20489 32293
" />
<path d="M21052 28494
L20489 29057
" />
<path d="M20856 27474
L20856 28375
" />
<path d="M21203 33724
L20557 33724
" />
<path d="M21299 33628
L21203 33724
" />
<path d="M21299 33485
L21299 33628
" />
<path d="M20241 32427
L21299 33485
" />
<path d="M20241 28990
L20241 32427
" />
<path d="M20856 28375
L20241 28990
" />
<path d="M19734 25959
L19029 25959
" />
<path d="M17322 24252
L16442 24252
" />
<path d="M19029 25959
L17322 24252
" />
</g>
<g style="fill:#000000; fill-opacity:1.0; 
stroke:#000000; stroke-width:196.85; stroke-opacity:1; 
stroke-linecap:round; stroke-linejoin:round;">
<path d="M14616 24313
L14616 25059
" />
<path d="M14616 25059
L14594 25081
" />
<path d="M16442 24252
L14677 24252
" />
<path d="M14677 24252
L14616 24313
" />
</g>
<g style="fill:#000000; fill-opacity:1.0; 
stroke:#000000; stroke-width:393.701; stroke-opacity:1; 
stroke-linecap:round; stroke-linejoin:round;">
<path d="M21255 37710
L21230 37710
" />
<path d="M21230 37710
L20605 38335
" />
<path d="M19970 37700
L19970 37345
" />
<path d="M19970 37345
L20490 36825
" />
<path d="M19150 37700
L19970 37700
" />
<path d="M19970 37700
L20605 38335
" />
<path d="M20605 38335
L21390 39120
" />
</g>
<g style="fill:#000000; fill-opacity:1.0; 
stroke:#000000; stroke-width:196.85; stroke-opacity:1; 
stroke-linecap:round; stroke-linejoin:round;">
<path d="M24580 24580
L25635 24580
" />
<path d="M25635 24580
L26035 24180
" />
</g>
<g style="fill:#000000; fill-opacity:1.0; 
stroke:#000000; stroke-width:92.5197; stroke-opacity:1; 
stroke-linecap:round; stroke-linejoin:round;">
<path d="M22960 24779
L24381 24779
" />
<path d="M24381 24779
L24580 24580
" />
</g>
<g style="fill:#000000; fill-opacity:1.0; 
stroke:#000000; stroke-width:196.85; stroke-opacity:1; 
stroke-linecap:round; stroke-linejoin:round;">
<path d="M21317 20309
L20101 20309
" />
<path d="M20101 20309
L18956 21454
" />
<path d="M18956 21454
L18956 22032
" />
<path d="M22936 28902
L23556 28902
" />
<path d="M23556 28902
L23856 28602
" />
<path d="M16457 26992
L17162 26992
" />
<path d="M17162 26992
L17590 26564
" />
<path d="M16442 25252
L17062 25252
" />
<path d="M17711 26685
L18120 26685
" />
<path d="M17521 26495
L17590 26564
" />
<path d="M17590 26564
L17711 26685
" />
<path d="M17521 25711
L17521 26495
" />
<path d="M17062 25252
L17521 25711
" />
</g>
<g style="fill:#000000; fill-opacity:1.0; 
stroke:#000000; stroke-width:92.5197; stroke-opacity:1; 
stroke-linecap:round; stroke-linejoin:round;">
<path d="M19734 26352
L18990 26352
" />
<path d="M18990 26352
L18657 26685
" />
<path d="M18657 26685
L18120 26685
" />
<path d="M19212 23660
L19920 23660
" />
<path d="M20265 24005
L20265 24248
" />
<path d="M19920 23660
L20265 24005
" />
<path d="M20265 24248
L20265 24665
" />
<path d="M20265 24665
L20379 24779
" />
<path d="M20379 24779
L22439 24779
" />
<path d="M22439 24779
L22960 24779
" />
</g>
<g style="fill:#000000; fill-opacity:1.0; 
stroke:#000000; stroke-width:196.85; stroke-opacity:1; 
stroke-linecap:round; stroke-linejoin:round;">
<path d="M22936 28483
L22936 28902
" />
<path d="M22936 28902
L22936 29323
" />
<path d="M22936 29323
L22915 29344
" />
</g>
<g style="fill:#000000; fill-opacity:1.0; 
stroke:#000000; stroke-width:92.5197; stroke-opacity:1; 
stroke-linecap:round; stroke-linejoin:round;">
<path d="M22429 27474
L22429 27728
" />
<path d="M22936 28039
L22936 28483
" />
<path d="M22834 27937
L22936 28039
" />
<path d="M22638 27937
L22834 27937
" />
<path d="M22429 27728
L22638 27937
" />
</g>
<g style="fill:#000000; fill-opacity:1.0; 
stroke:#000000; stroke-width:196.85; stroke-opacity:1; 
stroke-linecap:round; stroke-linejoin:round;">
<path d="M16442 25252
L15866 25252
" />
<path d="M15287 25831
L14594 25831
" />
<path d="M15866 25252
L15287 25831
" />
<path d="M22845 36820
L23500 36820
" />
<path d="M23500 36820
L23852 37172
" />
<path d="M22005 37710
L22644 37710
" />
<path d="M22644 37710
L22979 38045
" />
<path d="M28355 22570
L29469 22570
" />
<path d="M29469 22570
L29490 22591
" />
</g>
<g style="fill:#000000; fill-opacity:1.0; 
stroke:#000000; stroke-width:393.701; stroke-opacity:1; 
stroke-linecap:round; stroke-linejoin:round;">
<path d="M22390 39120
L23835 39120
" />
<path d="M23835 39120
L23850 39135
" />
<path d="M22390 39120
L22390 38635
" />
<path d="M22390 38635
L22979 38045
" />
<path d="M22979 38045
L23852 37172
" />
<path d="M23852 37172
L24238 36787
" />
<path d="M19460 35960
L23650 35960
" />
<path d="M23650 35960
L23850 35760
" />
</g>
<g style="fill:#000000; fill-opacity:1.0; 
stroke:#000000; stroke-width:196.85; stroke-opacity:1; 
stroke-linecap:round; stroke-linejoin:round;">
<path d="M17655 29750
L17655 30966
" />
<path d="M17655 30966
L17709 31020
" />
<path d="M16450 29739
L16450 30972
" />
<path d="M16450 30972
L16402 31020
" />
</g>
<g style="fill:#000000; fill-opacity:1.0; 
stroke:#000000; stroke-width:92.5197; stroke-opacity:1; 
stroke-linecap:round; stroke-linejoin:round;">
<path d="M22960 24976
L22505 24976
" />
<path d="M22505 24976
L21325 26156
" />
<path d="M19734 26156
L18825 26156
" />
<path d="M18604 25935
L18120 25935
" />
<path d="M18825 26156
L18604 25935
" />
<path d="M22960 24976
L23685 24976
" />
<path d="M27035 25780
L27035 24180
" />
<path d="M26824 25991
L27035 25780
" />
<path d="M24700 25991
L26824 25991
" />
<path d="M23685 24976
L24700 25991
" />
<path d="M20462 24248
L20462 23822
" />
<path d="M18462 23244
L18462 23660
" />
<path d="M18564 23142
L18462 23244
" />
<path d="M19782 23142
L18564 23142
" />
<path d="M20462 23822
L19782 23142
" />
</g>
<g style="fill:#000000; fill-opacity:1.0; 
stroke:#000000; stroke-width:196.85; stroke-opacity:1; 
stroke-linecap:round; stroke-linejoin:round;">
<path d="M17423 20860
L17423 21336
" />
<path d="M18125 23660
L18462 23660
" />
<path d="M17790 23325
L18125 23660
" />
<path d="M17790 21703
L17790 23325
" />
<path d="M17423 21336
L17790 21703
" />
</g>
<g style="fill:#000000; fill-opacity:1.0; 
stroke:#000000; stroke-width:92.5197; stroke-opacity:1; 
stroke-linecap:round; stroke-linejoin:round;">
<path d="M19734 26156
L21325 26156
" />
<path d="M21325 26156
L21354 26156
" />
<path d="M21354 26156
L22232 27034
" />
<path d="M22232 27034
L22232 27474
" />
<path d="M22232 27474
L22232 28437
" />
<path d="M22232 28437
L22186 28483
" />
</g>
<g style="fill:#000000; fill-opacity:1.0; 
stroke:#000000; stroke-width:393.701; stroke-opacity:1; 
stroke-linecap:round; stroke-linejoin:round;">
<path d="M22800 31800
L23356 31800
" />
<path d="M23356 31800
L23850 32294
" />
<path d="M13635 29505
L13635 30061
" />
<path d="M13635 30061
L13635 30625
" />
<path d="M13635 30625
L14030 31020
" />
<path d="M13635 29505
L13635 28296
" />
</g>
<g style="fill:#000000; fill-opacity:1.0; 
stroke:#000000; stroke-width:196.85; stroke-opacity:1; 
stroke-linecap:round; stroke-linejoin:round;">
<path d="M13635 29505
L13630 29500
" />
</g>
<g style="fill:#000000; fill-opacity:1.0; 
stroke:#000000; stroke-width:393.701; stroke-opacity:1; 
stroke-linecap:round; stroke-linejoin:round;">
<path d="M14030 31020
L16402 31020
" />
<path d="M16402 31020
L17709 31020
" />
<path d="M17709 31020
L18600 31020
" />
<path d="M13635 28296
L13635 26982
" />
<path d="M18600 31020
L19250 31670
" />
<path d="M13635 26982
L13635 26550
" />
<path d="M19250 31670
L19250 31984
" />
<path d="M13635 26550
L13635 23573
" />
</g>
<g style="fill:#000000; fill-opacity:1.0; 
stroke:#000000; stroke-width:196.85; stroke-opacity:1; 
stroke-linecap:round; stroke-linejoin:round;">
<path d="M19194 31928
L19250 31984
" />
</g>
<g style="fill:#000000; fill-opacity:1.0; 
stroke:#000000; stroke-width:393.701; stroke-opacity:1; 
stroke-linecap:round; stroke-linejoin:round;">
<path d="M19250 31984
L19250 34197
" />
</g>
<g style="fill:#000000; fill-opacity:1.0; 
stroke:#000000; stroke-width:196.85; stroke-opacity:1; 
stroke-linecap:round; stroke-linejoin:round;">
<path d="M13645 23563
L13635 23573
" />
</g>
<g style="fill:#000000; fill-opacity:1.0; 
stroke:#000000; stroke-width:393.701; stroke-opacity:1; 
stroke-linecap:round; stroke-linejoin:round;">
<path d="M13635 23573
L13635 22606
" />
</g>
<g style="fill:#000000; fill-opacity:1.0; 
stroke:#000000; stroke-width:196.85; stroke-opacity:1; 
stroke-linecap:round; stroke-linejoin:round;">
<path d="M19277 34224
L19250 34197
" />
</g>
<g style="fill:#000000; fill-opacity:1.0; 
stroke:#000000; stroke-width:393.701; stroke-opacity:1; 
stroke-linecap:round; stroke-linejoin:round;">
<path d="M19250 34197
L19250 35750
" />
<path d="M13635 21705
L13635 21345
" />
<path d="M13635 21345
L14120 20860
" />
</g>
<g style="fill:#000000; fill-opacity:1.0; 
stroke:#000000; stroke-width:196.85; stroke-opacity:1; 
stroke-linecap:round; stroke-linejoin:round;">
<path d="M13872 21656
L13635 21893
" />
<path d="M13690 22661
L13635 22606
" />
</g>
<g style="fill:#000000; fill-opacity:1.0; 
stroke:#000000; stroke-width:393.701; stroke-opacity:1; 
stroke-linecap:round; stroke-linejoin:round;">
<path d="M13635 22606
L13635 21893
" />
<path d="M13635 21893
L13635 21705
" />
<path d="M13635 21705
L13650 21690
" />
<path d="M19250 35750
L19460 35960
" />
<path d="M19460 35960
L19465 35965
" />
<path d="M14120 20860
L17423 20860
" />
<path d="M17423 20860
L17530 20860
" />
<path d="M18782 36648
L19465 35965
" />
<path d="M17530 20860
L17745 20645
" />
<path d="M24545 37094
L24238 36787
" />
<path d="M24238 36787
L24375 36924
" />
<path d="M24375 36924
L23955 36504
" />
<path d="M23955 36504
L23530 36079
" />
<path d="M25279 37094
L24545 37094
" />
<path d="M23530 36079
L23850 35760
" />
<path d="M23850 35760
L23850 34731
" />
</g>
<g style="fill:#000000; fill-opacity:1.0; 
stroke:#000000; stroke-width:196.85; stroke-opacity:1; 
stroke-linecap:round; stroke-linejoin:round;">
<path d="M23836 34717
L23850 34731
" />
</g>
<g style="fill:#000000; fill-opacity:1.0; 
stroke:#000000; stroke-width:393.701; stroke-opacity:1; 
stroke-linecap:round; stroke-linejoin:round;">
<path d="M23850 34731
L23850 32294
" />
</g>
<g style="fill:#000000; fill-opacity:1.0; 
stroke:#000000; stroke-width:196.85; stroke-opacity:1; 
stroke-linecap:round; stroke-linejoin:round;">
<path d="M27035 24180
L29361 24180
" />
<path d="M29361 24180
L29490 24051
" />
</g>
<g style="fill:#000000; fill-opacity:1.0; 
stroke:#000000; stroke-width:393.701; stroke-opacity:1; 
stroke-linecap:round; stroke-linejoin:round;">
<path d="M29490 25995
L29490 26617
" />
<path d="M29490 26617
L29490 30650
" />
<path d="M29490 30650
L28920 31220
" />
<path d="M28920 31220
L25720 31220
" />
<path d="M29490 25890
L29490 25995
" />
<path d="M29490 23471
L29490 24051
" />
<path d="M29490 24051
L29490 25890
" />
<path d="M29490 22773
L29490 22591
" />
<path d="M29490 22591
L29490 23471
" />
<path d="M25720 31220
L25470 31470
" />
<path d="M29490 21950
L29490 22773
" />
</g>
<g style="fill:#000000; fill-opacity:1.0; 
stroke:#000000; stroke-width:196.85; stroke-opacity:1; 
stroke-linecap:round; stroke-linejoin:round;">
<path d="M20465 17692
L19556 17692
" />
<path d="M19556 17692
L19495 17753
" />
</g>
<g style="fill:#000000; fill-opacity:1.0; 
stroke:#000000; stroke-width:100; stroke-opacity:1; 
stroke-linecap:round; stroke-linejoin:round;">
<path d="M21510 16002
L21510 19320
" />
<path d="M23644 21454
L23644 22054
" />
<path d="M21510 19320
L23644 21454
" />
</g>
<g style="fill:#000000; fill-opacity:1.0; 
stroke:#000000; stroke-width:393.701; stroke-opacity:1; 
stroke-linecap:round; stroke-linejoin:round;">
<path d="M25279 31661
L25279 32294
" />
<path d="M25470 31470
L25279 31661
" />
</g>
<g style="fill:#000000; fill-opacity:1.0; 
stroke:#000000; stroke-width:196.85; stroke-opacity:1; 
stroke-linecap:round; stroke-linejoin:round;">
<path d="M22440 18166
L23626 18166
" />
<path d="M23626 18166
L23650 18142
" />
<path d="M22481 34717
L23836 34717
" />
<path d="M20557 34224
L19277 34224
" />
</g>
<g style="fill:#000000; fill-opacity:1.0; 
stroke:#000000; stroke-width:393.701; stroke-opacity:1; 
stroke-linecap:round; stroke-linejoin:round;">
<path d="M17777 36648
L18782 36648
" />
</g>
<g style="fill:#000000; fill-opacity:1.0; 
stroke:#000000; stroke-width:196.85; stroke-opacity:1; 
stroke-linecap:round; stroke-linejoin:round;">
<path d="M17807 31928
L19194 31928
" />
</g>
<g style="fill:#000000; fill-opacity:1.0; 
stroke:#000000; stroke-width:393.701; stroke-opacity:1; 
stroke-linecap:round; stroke-linejoin:round;">
<path d="M25350 20402
L25350 21020
" />
<path d="M28750 21210
L29490 21950
" />
<path d="M25540 21210
L28750 21210
" />
<path d="M25350 21020
L25540 21210
" />
<path d="M23650 16002
L23650 18142
" />
<path d="M23650 18142
L23650 19300
" />
<path d="M24752 20402
L25350 20402
" />
<path d="M23650 19300
L24752 20402
" />
<path d="M19495 16002
L21510 16002
" />
<path d="M21510 16002
L23650 16002
" />
<path d="M23650 16002
L23668 16002
" />
<path d="M23878 15792
L25370 15792
" />
<path d="M23668 16002
L23878 15792
" />
<path d="M17745 19962
L18558 19962
" />
<path d="M18763 15270
L17720 15270
" />
<path d="M19495 16002
L18763 15270
" />
<path d="M19495 19025
L19495 17753
" />
<path d="M19495 17753
L19495 16002
" />
<path d="M18558 19962
L19495 19025
" />
<path d="M17745 20645
L17745 19962
" />
</g>
<g style="fill:#000000; fill-opacity:1.0; 
stroke:#000000; stroke-width:196.85; stroke-opacity:1; 
stroke-linecap:round; stroke-linejoin:round;">
<path d="M14543 21656
L13872 21656
" />
<path d="M14558 22661
L13690 22661
" />
<path d="M14616 23563
L13645 23563
" />
</g>
<g style="fill:#000000; fill-opacity:1.0; 
stroke:#000000; stroke-width:393.701; stroke-opacity:1; 
stroke-linecap:round; stroke-linejoin:round;">
<path d="M23850 32294
L25279 32294
" />
</g> 
</svg>
