<?xml version="1.0" standalone="no"?>
 <!DOCTYPE svg PUBLIC "-//W3C//DTD SVG 1.1//EN" 
 "http://www.w3.org/Graphics/SVG/1.1/DTD/svg11.dtd"> 
<svg xmlns="http://www.w3.org/2000/svg" version="1.1" 
    width="41.9989cm" height="29.7002cm" viewBox="0 0 165350 116930 ">
<title>SVG Picture created as netdroid-Back.svg date 2013/11/12 16:37:26 </title>
  <desc>Picture generated by PCBNEW </desc>
<g style="fill:#000000; fill-opacity:1;stroke:#000000; stroke-opacity:1;
stroke-linecap:round; stroke-linejoin:round; "
 transform="translate(0 0) scale(1 1)">
</g>
<g style="fill:#000000; fill-opacity:0.0; 
stroke:#000000; stroke-width:59.0551; stroke-opacity:1; 
stroke-linecap:round; stroke-linejoin:round;">
</g>
<g style="fill:#000000; fill-opacity:1.0; 
stroke:#000000; stroke-width:59.0551; stroke-opacity:1; 
stroke-linecap:round; stroke-linejoin:round;">
<polyline style="fill-rule:evenodd;"
points="28755,87925
28755,87434
28264,87434
28264,87925
28755,87925
" /> 
<circle cx="27510" cy="87680" r="245.472" /> 
<circle cx="26510" cy="87680" r="245.472" /> 
<circle cx="25510" cy="87680" r="245.472" /> 
<polyline style="fill-rule:evenodd;"
points="16935,81956
16444,81956
16444,82447
16935,82447
16935,81956
" /> 
<circle cx="16690" cy="83202" r="245.472" /> 
<polyline style="fill-rule:evenodd;"
points="26214,99491
26705,99491
26705,99000
26214,99000
26214,99491
" /> 
<circle cx="26460" cy="98246" r="245.472" /> 
<polyline style="fill-rule:evenodd;"
points="16172,95524
16663,95524
16663,95033
16172,95033
16172,95524
" /> 
<circle cx="16418" cy="94279" r="245.472" /> 
<polyline style="fill-rule:evenodd;"
points="20565,94630
20565,95121
21056,95121
21056,94630
20565,94630
" /> 
<circle cx="21811" cy="94876" r="245.472" /> 
<polyline style="fill-rule:evenodd;"
points="16842,98490
16351,98490
16351,98981
16842,98981
16842,98490
" /> 
<circle cx="16597" cy="99736" r="245.472" /> 
<polyline style="fill-rule:evenodd;"
points="26186,82960
26677,82960
26677,82469
26186,82469
26186,82960
" /> 
<circle cx="26432" cy="81715" r="245.472" /> 
<polyline style="fill-rule:evenodd;"
points="21634,86264
21634,86755
22125,86755
22125,86264
21634,86264
" /> 
<circle cx="22880" cy="86510" r="245.472" /> 
<polyline style="fill-rule:evenodd;"
points="16687,91432
16196,91432
16196,91923
16687,91923
16687,91432
" /> 
<circle cx="16442" cy="92678" r="245.472" /> 
<polyline style="fill-rule:evenodd;"
points="17900,86934
17409,86934
17409,87425
17900,87425
17900,86934
" /> 
<circle cx="17655" cy="88180" r="245.472" /> 
<polyline style="fill-rule:evenodd;"
points="16695,86945
16204,86945
16204,87436
16695,87436
16695,86945
" /> 
<circle cx="16450" cy="88191" r="245.472" /> 
<polyline style="fill-rule:evenodd;"
points="22635,78055
22635,77564
22144,77564
22144,78055
22635,78055
" /> 
<circle cx="21390" cy="77810" r="245.472" /> 
<circle cx="20390" cy="77810" r="245.472" /> 
<polyline style="fill-rule:evenodd;"
points="27280,92995
27280,92504
26789,92504
26789,92995
27280,92995
" /> 
<circle cx="26035" cy="92750" r="245.472" /> 
<polyline style="fill-rule:evenodd;"
points="26240,90204
25749,90204
25749,90695
26240,90695
26240,90204
" /> 
<circle cx="25995" cy="91450" r="245.472" /> 
<polyline style="fill-rule:evenodd;"
points="28355,90234
27864,90234
27864,90725
28355,90725
28355,90234
" /> 
<circle cx="28110" cy="91480" r="245.472" /> 
<polyline style="fill-rule:evenodd;"
points="18894,88455
19385,88455
19385,87964
18894,87964
18894,88455
" /> 
<circle cx="19140" cy="87210" r="245.472" /> 
<polyline style="fill-rule:evenodd;"
points="21071,96375
21071,96866
21562,96866
21562,96375
21071,96375
" /> 
<polyline style="fill-rule:evenodd;"
points="24334,92104
24334,92595
24825,92595
24825,92104
24334,92104
" /> 
<polyline style="fill-rule:evenodd;"
points="23610,88082
23610,88573
24101,88573
24101,88082
23610,88082
" /> 
<polyline style="fill-rule:evenodd;"
points="16211,89692
16211,90183
16702,90183
16702,89692
16211,89692
" /> 
<polyline style="fill-rule:evenodd;"
points="18904,78984
18904,79475
19395,79475
19395,78984
18904,78984
" /> 
<polyline style="fill-rule:evenodd;"
points="16434,78074
16434,78565
16925,78565
16925,78074
16434,78074
" /> 
<polyline style="fill-rule:evenodd;"
points="21284,101664
21284,102155
21775,102155
21775,101664
21284,101664
" /> 
<polyline style="fill-rule:evenodd;"
points="26596,76391
26183,76391
26183,77828
26596,77828
26596,76391
" /> 
<polyline style="fill-rule:evenodd;"
points="26596,78891
26183,78891
26183,80328
26596,80328
26596,78891
" /> 
<polyline style="fill-rule:evenodd;"
points="23604,77549
23604,78040
24095,78040
24095,77549
23604,77549
" /> 
</g>
<g style="fill:#000000; fill-opacity:1.0; 
stroke:#000000; stroke-width:393.701; stroke-opacity:1; 
stroke-linecap:round; stroke-linejoin:round;">
<path d="M28820 103350
L30740 103350
" />
<path d="M29780 104070
L29780 102460
" />
<path d="M14238 76895
L12216 76895
" />
<path d="M12216 76895
L12210 76889
" />
<path d="M13195 77863
L13195 75949
" />
<path d="M13195 75949
L13200 75944
" />
</g>
<g style="fill:#000000; fill-opacity:1.0; 
stroke:#000000; stroke-width:1181.1; stroke-opacity:1; 
stroke-linecap:round; stroke-linejoin:round;">
<path d="M16680 78320
L15488 78320
" />
<path d="M21530 100114
L21530 101910
" />
<path d="M18441 97025
L21530 100114
" />
<path d="M15960 97025
L18441 97025
" />
<path d="M14700 95765
L15960 97025
" />
<path d="M14700 79108
L14700 95765
" />
<path d="M15488 78320
L14700 79108
" />
<path d="M19150 79230
L22402 79230
" />
<path d="M22902 79730
L24200 79730
" />
<path d="M22402 79230
L22902 79730
" />
<path d="M23856 88328
L23856 88090
" />
<path d="M23856 88090
L24200 87746
" />
<path d="M24200 87746
L24200 79730
" />
<path d="M24580 92350
L24580 89160
" />
<path d="M23748 88328
L23856 88328
" />
<path d="M24580 89160
L23748 88328
" />
<path d="M24580 92350
L24580 95065
" />
<path d="M23024 96621
L21317 96621
" />
<path d="M24580 95065
L23024 96621
" />
<path d="M24200 79730
L24210 79730
" />
<path d="M24210 79730
L24210 79722
" />
<path d="M24188 79700
L26300 79700
" />
<path d="M26300 79700
L26390 79610
" />
<path d="M24210 79722
L24188 79700
" />
<path d="M23856 88328
L22094 88328
" />
<path d="M20484 89938
L16457 89938
" />
<path d="M22094 88328
L20484 89938
" />
<path d="M23850 77795
L24495 77150
" />
<path d="M26350 77150
L26390 77110
" />
<path d="M24495 77150
L26350 77150
" />
</g> 
</svg>
