G04 (created by PCBNEW (2013-07-07 BZR 4022)-stable) date 12.11.2013 10:07:54*
%MOIN*%
G04 Gerber Fmt 3.4, Leading zero omitted, Abs format*
%FSLAX34Y34*%
G01*
G70*
G90*
G04 APERTURE LIST*
%ADD10C,0.00590551*%
%ADD11R,0.055X0.055*%
%ADD12C,0.055*%
%ADD13R,0.0472X0.1496*%
%ADD14C,0.11811*%
G04 APERTURE END LIST*
G54D10*
G54D11*
X28510Y-29250D03*
G54D12*
X27510Y-29250D03*
X26510Y-29250D03*
X25510Y-29250D03*
G54D11*
X16690Y-34728D03*
G54D12*
X16690Y-33728D03*
G54D11*
X26460Y-17684D03*
G54D12*
X26460Y-18684D03*
G54D11*
X16418Y-21651D03*
G54D12*
X16418Y-22651D03*
G54D11*
X20811Y-22054D03*
G54D12*
X21811Y-22054D03*
G54D11*
X16597Y-18194D03*
G54D12*
X16597Y-17194D03*
G54D11*
X26432Y-34215D03*
G54D12*
X26432Y-35215D03*
G54D11*
X21880Y-30420D03*
G54D12*
X22880Y-30420D03*
G54D11*
X16442Y-25252D03*
G54D12*
X16442Y-24252D03*
G54D11*
X17655Y-29750D03*
G54D12*
X17655Y-28750D03*
G54D11*
X16450Y-29739D03*
G54D12*
X16450Y-28739D03*
G54D11*
X22390Y-39120D03*
G54D12*
X21390Y-39120D03*
X20390Y-39120D03*
G54D11*
X27035Y-24180D03*
G54D12*
X26035Y-24180D03*
G54D11*
X25995Y-26480D03*
G54D12*
X25995Y-25480D03*
G54D11*
X28110Y-26450D03*
G54D12*
X28110Y-25450D03*
G54D11*
X19140Y-28720D03*
G54D12*
X19140Y-29720D03*
G54D11*
X21317Y-20309D03*
X24580Y-24580D03*
X23856Y-28602D03*
X16457Y-26992D03*
X19150Y-37700D03*
X16680Y-38610D03*
X21530Y-15020D03*
G54D13*
X26390Y-39820D03*
X26390Y-37320D03*
G54D11*
X23850Y-39135D03*
G54D14*
X16680Y-38610D02*
X15488Y-38610D01*
X21530Y-16816D02*
X21530Y-15020D01*
X18441Y-19905D02*
X21530Y-16816D01*
X15960Y-19905D02*
X18441Y-19905D01*
X14700Y-21165D02*
X15960Y-19905D01*
X14700Y-37822D02*
X14700Y-21165D01*
X15488Y-38610D02*
X14700Y-37822D01*
X19150Y-37700D02*
X22402Y-37700D01*
X22902Y-37200D02*
X24200Y-37200D01*
X22402Y-37700D02*
X22902Y-37200D01*
X23856Y-28602D02*
X23856Y-28840D01*
X23856Y-28840D02*
X24200Y-29184D01*
X24200Y-29184D02*
X24200Y-37200D01*
X24580Y-24580D02*
X24580Y-27770D01*
X23748Y-28602D02*
X23856Y-28602D01*
X24580Y-27770D02*
X23748Y-28602D01*
X24580Y-24580D02*
X24580Y-21865D01*
X23024Y-20309D02*
X21317Y-20309D01*
X24580Y-21865D02*
X23024Y-20309D01*
X24200Y-37200D02*
X24210Y-37200D01*
X24210Y-37200D02*
X24210Y-37208D01*
X24188Y-37230D02*
X26300Y-37230D01*
X26300Y-37230D02*
X26390Y-37320D01*
X24210Y-37208D02*
X24188Y-37230D01*
X23856Y-28602D02*
X22094Y-28602D01*
X20484Y-26992D02*
X16457Y-26992D01*
X22094Y-28602D02*
X20484Y-26992D01*
X23850Y-39135D02*
X24495Y-39780D01*
X26350Y-39780D02*
X26390Y-39820D01*
X24495Y-39780D02*
X26350Y-39780D01*
M02*
