<?xml version="1.0" standalone="no"?>
 <!DOCTYPE svg PUBLIC "-//W3C//DTD SVG 1.1//EN" 
 "http://www.w3.org/Graphics/SVG/1.1/DTD/svg11.dtd"> 
<svg xmlns="http://www.w3.org/2000/svg" version="1.1" 
    width="41.9989cm" height="29.7002cm" viewBox="0 0 165350 116930 ">
<title>SVG Picture created as netdroid-Back.svg date 2013/11/12 10:07:49 </title>
  <desc>Picture generated by PCBNEW </desc>
<g style="fill:#000000; fill-opacity:1;stroke:#000000; stroke-opacity:1;
stroke-linecap:round; stroke-linejoin:round; "
 transform="translate(0 0) scale(1 1)">
</g>
<g style="fill:#000000; fill-opacity:0.0; 
stroke:#000000; stroke-width:59.0551; stroke-opacity:1; 
stroke-linecap:round; stroke-linejoin:round;">
</g>
<g style="fill:#000000; fill-opacity:1.0; 
stroke:#000000; stroke-width:59.0551; stroke-opacity:1; 
stroke-linecap:round; stroke-linejoin:round;">
<polyline style="fill-rule:evenodd;"
points="28755,29004
28755,29495
28264,29495
28264,29004
28755,29004
" /> 
<circle cx="27510" cy="29250" r="245.472" /> 
<circle cx="26510" cy="29250" r="245.472" /> 
<circle cx="25510" cy="29250" r="245.472" /> 
<polyline style="fill-rule:evenodd;"
points="16935,34973
16444,34973
16444,34482
16935,34482
16935,34973
" /> 
<circle cx="16690" cy="33728" r="245.472" /> 
<polyline style="fill-rule:evenodd;"
points="26214,17438
26705,17438
26705,17929
26214,17929
26214,17438
" /> 
<circle cx="26460" cy="18684" r="245.472" /> 
<polyline style="fill-rule:evenodd;"
points="16172,21405
16663,21405
16663,21896
16172,21896
16172,21405
" /> 
<circle cx="16418" cy="22651" r="245.472" /> 
<polyline style="fill-rule:evenodd;"
points="20565,22299
20565,21808
21056,21808
21056,22299
20565,22299
" /> 
<circle cx="21811" cy="22054" r="245.472" /> 
<polyline style="fill-rule:evenodd;"
points="16842,18439
16351,18439
16351,17948
16842,17948
16842,18439
" /> 
<circle cx="16597" cy="17194" r="245.472" /> 
<polyline style="fill-rule:evenodd;"
points="26186,33969
26677,33969
26677,34460
26186,34460
26186,33969
" /> 
<circle cx="26432" cy="35215" r="245.472" /> 
<polyline style="fill-rule:evenodd;"
points="21634,30665
21634,30174
22125,30174
22125,30665
21634,30665
" /> 
<circle cx="22880" cy="30420" r="245.472" /> 
<polyline style="fill-rule:evenodd;"
points="16687,25497
16196,25497
16196,25006
16687,25006
16687,25497
" /> 
<circle cx="16442" cy="24252" r="245.472" /> 
<polyline style="fill-rule:evenodd;"
points="17900,29995
17409,29995
17409,29504
17900,29504
17900,29995
" /> 
<circle cx="17655" cy="28750" r="245.472" /> 
<polyline style="fill-rule:evenodd;"
points="16695,29984
16204,29984
16204,29493
16695,29493
16695,29984
" /> 
<circle cx="16450" cy="28739" r="245.472" /> 
<polyline style="fill-rule:evenodd;"
points="22635,38874
22635,39365
22144,39365
22144,38874
22635,38874
" /> 
<circle cx="21390" cy="39120" r="245.472" /> 
<circle cx="20390" cy="39120" r="245.472" /> 
<polyline style="fill-rule:evenodd;"
points="27280,23934
27280,24425
26789,24425
26789,23934
27280,23934
" /> 
<circle cx="26035" cy="24180" r="245.472" /> 
<polyline style="fill-rule:evenodd;"
points="26240,26725
25749,26725
25749,26234
26240,26234
26240,26725
" /> 
<circle cx="25995" cy="25480" r="245.472" /> 
<polyline style="fill-rule:evenodd;"
points="28355,26695
27864,26695
27864,26204
28355,26204
28355,26695
" /> 
<circle cx="28110" cy="25450" r="245.472" /> 
<polyline style="fill-rule:evenodd;"
points="18894,28474
19385,28474
19385,28965
18894,28965
18894,28474
" /> 
<circle cx="19140" cy="29720" r="245.472" /> 
<polyline style="fill-rule:evenodd;"
points="21071,20554
21071,20063
21562,20063
21562,20554
21071,20554
" /> 
<polyline style="fill-rule:evenodd;"
points="24334,24825
24334,24334
24825,24334
24825,24825
24334,24825
" /> 
<polyline style="fill-rule:evenodd;"
points="23610,28847
23610,28356
24101,28356
24101,28847
23610,28847
" /> 
<polyline style="fill-rule:evenodd;"
points="16211,27237
16211,26746
16702,26746
16702,27237
16211,27237
" /> 
<polyline style="fill-rule:evenodd;"
points="18904,37945
18904,37454
19395,37454
19395,37945
18904,37945
" /> 
<polyline style="fill-rule:evenodd;"
points="16434,38855
16434,38364
16925,38364
16925,38855
16434,38855
" /> 
<polyline style="fill-rule:evenodd;"
points="21284,15265
21284,14774
21775,14774
21775,15265
21284,15265
" /> 
<polyline style="fill-rule:evenodd;"
points="26596,40538
26183,40538
26183,39101
26596,39101
26596,40538
" /> 
<polyline style="fill-rule:evenodd;"
points="26596,38038
26183,38038
26183,36601
26596,36601
26596,38038
" /> 
<polyline style="fill-rule:evenodd;"
points="23604,39380
23604,38889
24095,38889
24095,39380
23604,39380
" /> 
</g>
<g style="fill:#000000; fill-opacity:1.0; 
stroke:#000000; stroke-width:1181.1; stroke-opacity:1; 
stroke-linecap:round; stroke-linejoin:round;">
<path d="M16680 38610
L15488 38610
" />
<path d="M21530 16816
L21530 15020
" />
<path d="M18441 19905
L21530 16816
" />
<path d="M15960 19905
L18441 19905
" />
<path d="M14700 21165
L15960 19905
" />
<path d="M14700 37822
L14700 21165
" />
<path d="M15488 38610
L14700 37822
" />
<path d="M19150 37700
L22402 37700
" />
<path d="M22902 37200
L24200 37200
" />
<path d="M22402 37700
L22902 37200
" />
<path d="M23856 28602
L23856 28840
" />
<path d="M23856 28840
L24200 29184
" />
<path d="M24200 29184
L24200 37200
" />
<path d="M24580 24580
L24580 27770
" />
<path d="M23748 28602
L23856 28602
" />
<path d="M24580 27770
L23748 28602
" />
<path d="M24580 24580
L24580 21865
" />
<path d="M23024 20309
L21317 20309
" />
<path d="M24580 21865
L23024 20309
" />
<path d="M24200 37200
L24210 37200
" />
<path d="M24210 37200
L24210 37208
" />
<path d="M24188 37230
L26300 37230
" />
<path d="M26300 37230
L26390 37320
" />
<path d="M24210 37208
L24188 37230
" />
<path d="M23856 28602
L22094 28602
" />
<path d="M20484 26992
L16457 26992
" />
<path d="M22094 28602
L20484 26992
" />
<path d="M23850 39135
L24495 39780
" />
<path d="M26350 39780
L26390 39820
" />
<path d="M24495 39780
L26350 39780
" />
</g> 
</svg>
