G04 (created by PCBNEW (2013-07-07 BZR 4022)-stable) date 12.11.2013 10:07:54*
%MOIN*%
G04 Gerber Fmt 3.4, Leading zero omitted, Abs format*
%FSLAX34Y34*%
G01*
G70*
G90*
G04 APERTURE LIST*
%ADD10C,0.00590551*%
%ADD11R,0.045X0.02*%
%ADD12R,0.055X0.055*%
%ADD13C,0.055*%
%ADD14R,0.08X0.06*%
%ADD15R,0.06X0.08*%
%ADD16R,0.035X0.055*%
%ADD17R,0.055X0.035*%
%ADD18R,0.0315X0.0098*%
%ADD19R,0.0315X0.0099*%
%ADD20R,0.0098X0.0315*%
%ADD21R,0.0099X0.0315*%
%ADD22C,0.0393701*%
%ADD23C,0.019685*%
%ADD24C,0.00925197*%
%ADD25C,0.01*%
G04 APERTURE END LIST*
G54D10*
G54D11*
X18057Y-35224D03*
X18057Y-34724D03*
X18057Y-34224D03*
X18057Y-33724D03*
X20557Y-33724D03*
X20557Y-34224D03*
X20557Y-34724D03*
X20557Y-35224D03*
X24981Y-33717D03*
X24981Y-34217D03*
X24981Y-34717D03*
X24981Y-35217D03*
X22481Y-35217D03*
X22481Y-34717D03*
X22481Y-34217D03*
X22481Y-33717D03*
X24940Y-17166D03*
X24940Y-17666D03*
X24940Y-18166D03*
X24940Y-18666D03*
X22440Y-18666D03*
X22440Y-18166D03*
X22440Y-17666D03*
X22440Y-17166D03*
X17965Y-18692D03*
X17965Y-18192D03*
X17965Y-17692D03*
X17965Y-17192D03*
X20465Y-17192D03*
X20465Y-17692D03*
X20465Y-18192D03*
X20465Y-18692D03*
G54D12*
X28510Y-29250D03*
G54D13*
X27510Y-29250D03*
X26510Y-29250D03*
X25510Y-29250D03*
G54D12*
X16690Y-34728D03*
G54D13*
X16690Y-33728D03*
G54D12*
X26460Y-17684D03*
G54D13*
X26460Y-18684D03*
G54D12*
X16418Y-21651D03*
G54D13*
X16418Y-22651D03*
G54D12*
X20811Y-22054D03*
G54D13*
X21811Y-22054D03*
G54D12*
X16597Y-18194D03*
G54D13*
X16597Y-17194D03*
G54D12*
X26432Y-34215D03*
G54D13*
X26432Y-35215D03*
G54D12*
X21880Y-30420D03*
G54D13*
X22880Y-30420D03*
G54D12*
X16442Y-25252D03*
G54D13*
X16442Y-24252D03*
G54D12*
X17655Y-29750D03*
G54D13*
X17655Y-28750D03*
G54D12*
X16450Y-29739D03*
G54D13*
X16450Y-28739D03*
G54D14*
X14860Y-15802D03*
X14860Y-17102D03*
G54D15*
X17807Y-31928D03*
X16507Y-31928D03*
G54D14*
X14687Y-32298D03*
X14687Y-33598D03*
X14687Y-36128D03*
X14687Y-34828D03*
G54D15*
X17777Y-36648D03*
X16477Y-36648D03*
X17720Y-15270D03*
X16420Y-15270D03*
G54D14*
X14875Y-19547D03*
X14875Y-18247D03*
G54D15*
X17745Y-19962D03*
X16445Y-19962D03*
X25350Y-20402D03*
X26650Y-20402D03*
G54D14*
X28260Y-20042D03*
X28260Y-18742D03*
X28230Y-16292D03*
X28230Y-17592D03*
G54D15*
X25370Y-15792D03*
X26670Y-15792D03*
G54D14*
X28344Y-36664D03*
X28344Y-35364D03*
G54D15*
X25279Y-37094D03*
X26579Y-37094D03*
G54D14*
X28344Y-32769D03*
X28344Y-34069D03*
G54D15*
X25279Y-32294D03*
X26579Y-32294D03*
G54D16*
X19706Y-22032D03*
X18956Y-22032D03*
X22894Y-22054D03*
X23644Y-22054D03*
X25865Y-22570D03*
X26615Y-22570D03*
X27605Y-22570D03*
X28355Y-22570D03*
X20490Y-36825D03*
X21240Y-36825D03*
X22095Y-36820D03*
X22845Y-36820D03*
X22165Y-29344D03*
X22915Y-29344D03*
X22050Y-31800D03*
X22800Y-31800D03*
G54D17*
X14594Y-25081D03*
X14594Y-25831D03*
X14616Y-24313D03*
X14616Y-23563D03*
G54D16*
X14558Y-22661D03*
X15308Y-22661D03*
X15293Y-21656D03*
X14543Y-21656D03*
G54D18*
X19734Y-26943D03*
G54D19*
X19734Y-26746D03*
X19734Y-26549D03*
X19734Y-26352D03*
G54D18*
X19734Y-26156D03*
X19734Y-25959D03*
X19734Y-25763D03*
X19734Y-25566D03*
G54D19*
X19734Y-25370D03*
X19734Y-25173D03*
X19734Y-24976D03*
G54D18*
X19734Y-24779D03*
G54D20*
X20265Y-24248D03*
G54D21*
X20462Y-24248D03*
X20659Y-24248D03*
X20856Y-24248D03*
G54D20*
X21052Y-24248D03*
X21249Y-24248D03*
X21445Y-24248D03*
X21642Y-24248D03*
G54D21*
X21838Y-24248D03*
X22035Y-24248D03*
X22232Y-24248D03*
G54D20*
X22429Y-24248D03*
G54D18*
X22960Y-26943D03*
G54D19*
X22960Y-26746D03*
X22960Y-26549D03*
X22960Y-26352D03*
G54D18*
X22960Y-26156D03*
X22960Y-25959D03*
X22960Y-25763D03*
X22960Y-25566D03*
G54D19*
X22960Y-25370D03*
X22960Y-25173D03*
X22960Y-24976D03*
G54D18*
X22960Y-24779D03*
G54D20*
X20265Y-27474D03*
G54D21*
X20462Y-27474D03*
X20659Y-27474D03*
X20856Y-27474D03*
G54D20*
X21052Y-27474D03*
X21249Y-27474D03*
X21445Y-27474D03*
X21642Y-27474D03*
G54D21*
X21838Y-27474D03*
X22035Y-27474D03*
X22232Y-27474D03*
G54D20*
X22429Y-27474D03*
G54D12*
X22390Y-39120D03*
G54D13*
X21390Y-39120D03*
X20390Y-39120D03*
G54D12*
X27035Y-24180D03*
G54D13*
X26035Y-24180D03*
G54D12*
X25995Y-26480D03*
G54D13*
X25995Y-25480D03*
G54D12*
X28110Y-26450D03*
G54D13*
X28110Y-25450D03*
G54D12*
X19140Y-28720D03*
G54D13*
X19140Y-29720D03*
G54D16*
X22186Y-28483D03*
X22936Y-28483D03*
G54D17*
X18120Y-25935D03*
X18120Y-26685D03*
G54D16*
X22005Y-37710D03*
X21255Y-37710D03*
X18462Y-23660D03*
X19212Y-23660D03*
G54D12*
X21317Y-20309D03*
X24580Y-24580D03*
X23856Y-28602D03*
X16457Y-26992D03*
X19150Y-37700D03*
X16680Y-38610D03*
X21530Y-15020D03*
X23850Y-39135D03*
G54D22*
X20390Y-39120D02*
X20390Y-39990D01*
X29087Y-34717D02*
X28314Y-34717D01*
X29344Y-34974D02*
X29087Y-34717D01*
X29344Y-37366D02*
X29344Y-34974D01*
X26500Y-40210D02*
X29344Y-37366D01*
X20610Y-40210D02*
X26500Y-40210D01*
X20390Y-39990D02*
X20610Y-40210D01*
X16680Y-38610D02*
X15120Y-38610D01*
X14076Y-34224D02*
X14713Y-34224D01*
X13755Y-34545D02*
X14076Y-34224D01*
X13755Y-37245D02*
X13755Y-34545D01*
X15120Y-38610D02*
X13755Y-37245D01*
X20390Y-39120D02*
X17190Y-39120D01*
X17190Y-39120D02*
X16680Y-38610D01*
X21530Y-15020D02*
X19920Y-15020D01*
X19920Y-15020D02*
X19120Y-14220D01*
X19120Y-14220D02*
X14715Y-14220D01*
X14715Y-14220D02*
X13734Y-15201D01*
X13734Y-15201D02*
X13734Y-17514D01*
X13734Y-17514D02*
X13912Y-17692D01*
X13912Y-17692D02*
X14898Y-17692D01*
X21530Y-15020D02*
X23425Y-15020D01*
X23425Y-15020D02*
X23745Y-14700D01*
X23745Y-14700D02*
X28455Y-14700D01*
X28455Y-14700D02*
X29330Y-15575D01*
X29330Y-15575D02*
X29330Y-17976D01*
X29330Y-17976D02*
X29140Y-18166D01*
X29140Y-18166D02*
X28154Y-18166D01*
G54D23*
X17965Y-17692D02*
X14898Y-17692D01*
X14898Y-17692D02*
X14875Y-17715D01*
X24940Y-18166D02*
X28154Y-18166D01*
X28154Y-18166D02*
X28230Y-18090D01*
X28230Y-17592D02*
X28230Y-18090D01*
X28230Y-18090D02*
X28230Y-18712D01*
X28230Y-18712D02*
X28260Y-18742D01*
X14875Y-18247D02*
X14875Y-17715D01*
X14875Y-17715D02*
X14875Y-17650D01*
X14875Y-17650D02*
X14875Y-17117D01*
X14875Y-17117D02*
X14860Y-17102D01*
X24981Y-34717D02*
X28314Y-34717D01*
X28314Y-34717D02*
X28344Y-34747D01*
X18057Y-34224D02*
X14713Y-34224D01*
X14713Y-34224D02*
X14687Y-34198D01*
X14687Y-34828D02*
X14687Y-34198D01*
X14687Y-34198D02*
X14687Y-33598D01*
X28344Y-35364D02*
X28344Y-34747D01*
X28344Y-34747D02*
X28344Y-34069D01*
G54D24*
X21445Y-24248D02*
X21445Y-23417D01*
X22163Y-18666D02*
X22440Y-18666D01*
X22055Y-18774D02*
X22163Y-18666D01*
X22055Y-19099D02*
X22055Y-18774D01*
X24409Y-21453D02*
X22055Y-19099D01*
X24409Y-22526D02*
X24409Y-21453D01*
X24024Y-22911D02*
X24409Y-22526D01*
X21951Y-22911D02*
X24024Y-22911D01*
X21445Y-23417D02*
X21951Y-22911D01*
X20811Y-22054D02*
X20811Y-22489D01*
X21052Y-22730D02*
X21052Y-24248D01*
X20811Y-22489D02*
X21052Y-22730D01*
G54D23*
X20811Y-22054D02*
X19728Y-22054D01*
X19728Y-22054D02*
X19706Y-22032D01*
G54D24*
X22960Y-26352D02*
X23489Y-26352D01*
X28510Y-28377D02*
X28510Y-29250D01*
X27937Y-27804D02*
X28510Y-28377D01*
X24941Y-27804D02*
X27937Y-27804D01*
X23489Y-26352D02*
X24941Y-27804D01*
X22960Y-26943D02*
X23121Y-26943D01*
X25510Y-28842D02*
X25510Y-29250D01*
X25200Y-28532D02*
X25510Y-28842D01*
X24710Y-28532D02*
X25200Y-28532D01*
X23121Y-26943D02*
X24710Y-28532D01*
X22960Y-26746D02*
X23204Y-26746D01*
X26510Y-28631D02*
X26510Y-29250D01*
X26159Y-28280D02*
X26510Y-28631D01*
X24738Y-28280D02*
X26159Y-28280D01*
X23204Y-26746D02*
X24738Y-28280D01*
X22960Y-26549D02*
X23336Y-26549D01*
X27510Y-28378D02*
X27510Y-29250D01*
X27181Y-28049D02*
X27510Y-28378D01*
X24836Y-28049D02*
X27181Y-28049D01*
X23336Y-26549D02*
X24836Y-28049D01*
X22232Y-24248D02*
X22232Y-23718D01*
X25450Y-22570D02*
X25865Y-22570D01*
X24790Y-23230D02*
X25450Y-22570D01*
X22720Y-23230D02*
X24790Y-23230D01*
X22232Y-23718D02*
X22720Y-23230D01*
X19140Y-29720D02*
X19546Y-29720D01*
X20265Y-28581D02*
X20265Y-27474D01*
X19968Y-28878D02*
X20265Y-28581D01*
X19968Y-29298D02*
X19968Y-28878D01*
X19546Y-29720D02*
X19968Y-29298D01*
X19734Y-26943D02*
X19434Y-26943D01*
X19140Y-27237D02*
X19140Y-28720D01*
X19434Y-26943D02*
X19140Y-27237D01*
X21249Y-27474D02*
X21249Y-28647D01*
X22131Y-35217D02*
X22481Y-35217D01*
X21785Y-34871D02*
X22131Y-35217D01*
X21785Y-33237D02*
X21785Y-34871D01*
X20727Y-32179D02*
X21785Y-33237D01*
X20727Y-29169D02*
X20727Y-32179D01*
X21249Y-28647D02*
X20727Y-29169D01*
X21445Y-27474D02*
X21445Y-28775D01*
X22135Y-34217D02*
X22481Y-34217D01*
X22022Y-34104D02*
X22135Y-34217D01*
X22022Y-33173D02*
X22022Y-34104D01*
X20944Y-32095D02*
X22022Y-33173D01*
X20944Y-29276D02*
X20944Y-32095D01*
X21445Y-28775D02*
X20944Y-29276D01*
X20856Y-24248D02*
X20856Y-23541D01*
X21038Y-17192D02*
X20465Y-17192D01*
X21240Y-17394D02*
X21038Y-17192D01*
X21240Y-19350D02*
X21240Y-17394D01*
X20910Y-19680D02*
X21240Y-19350D01*
X20160Y-19680D02*
X20910Y-19680D01*
X18390Y-21450D02*
X20160Y-19680D01*
X18390Y-22458D02*
X18390Y-21450D01*
X18591Y-22659D02*
X18390Y-22458D01*
X19974Y-22659D02*
X18591Y-22659D01*
X20856Y-23541D02*
X19974Y-22659D01*
X19734Y-26549D02*
X19196Y-26549D01*
X16450Y-28329D02*
X16450Y-28739D01*
X16821Y-27958D02*
X16450Y-28329D01*
X17787Y-27958D02*
X16821Y-27958D01*
X19196Y-26549D02*
X17787Y-27958D01*
X19734Y-26746D02*
X19335Y-26746D01*
X17655Y-28426D02*
X17655Y-28750D01*
X19335Y-26746D02*
X17655Y-28426D01*
X21249Y-24248D02*
X21249Y-23278D01*
X22060Y-17666D02*
X22440Y-17666D01*
X21794Y-17932D02*
X22060Y-17666D01*
X21794Y-19226D02*
X21794Y-17932D01*
X24180Y-21612D02*
X21794Y-19226D01*
X24180Y-22433D02*
X24180Y-21612D01*
X23912Y-22701D02*
X24180Y-22433D01*
X21826Y-22701D02*
X23912Y-22701D01*
X21249Y-23278D02*
X21826Y-22701D01*
X25995Y-26480D02*
X24710Y-26480D01*
X23403Y-25173D02*
X22960Y-25173D01*
X24710Y-26480D02*
X23403Y-25173D01*
X22960Y-25763D02*
X23607Y-25763D01*
X27624Y-25450D02*
X28110Y-25450D01*
X27405Y-25669D02*
X27624Y-25450D01*
X27405Y-27027D02*
X27405Y-25669D01*
X27181Y-27251D02*
X27405Y-27027D01*
X25095Y-27251D02*
X27181Y-27251D01*
X23607Y-25763D02*
X25095Y-27251D01*
X28110Y-26450D02*
X28110Y-27090D01*
X23426Y-25959D02*
X22960Y-25959D01*
X24977Y-27510D02*
X23426Y-25959D01*
X27690Y-27510D02*
X24977Y-27510D01*
X28110Y-27090D02*
X27690Y-27510D01*
X25995Y-25480D02*
X25995Y-25077D01*
X22429Y-23942D02*
X22429Y-24248D01*
X22837Y-23534D02*
X22429Y-23942D01*
X26194Y-23534D02*
X22837Y-23534D01*
X26551Y-23891D02*
X26194Y-23534D01*
X26551Y-24521D02*
X26551Y-23891D01*
X25995Y-25077D02*
X26551Y-24521D01*
X20659Y-24248D02*
X20659Y-23676D01*
X20870Y-18192D02*
X20465Y-18192D01*
X20975Y-18297D02*
X20870Y-18192D01*
X20975Y-19120D02*
X20975Y-18297D01*
X20700Y-19395D02*
X20975Y-19120D01*
X20039Y-19395D02*
X20700Y-19395D01*
X18144Y-21290D02*
X20039Y-19395D01*
X18144Y-22554D02*
X18144Y-21290D01*
X18494Y-22904D02*
X18144Y-22554D01*
X19887Y-22904D02*
X18494Y-22904D01*
X20659Y-23676D02*
X19887Y-22904D01*
G54D23*
X21811Y-22054D02*
X22894Y-22054D01*
X22880Y-30420D02*
X22880Y-30780D01*
X22050Y-31250D02*
X22050Y-31800D01*
X22200Y-31100D02*
X22050Y-31250D01*
X22560Y-31100D02*
X22200Y-31100D01*
X22880Y-30780D02*
X22560Y-31100D01*
G54D24*
X19734Y-25763D02*
X19260Y-25763D01*
X16939Y-22651D02*
X16418Y-22651D01*
X17164Y-22876D02*
X16939Y-22651D01*
X17164Y-23667D02*
X17164Y-22876D01*
X19260Y-25763D02*
X17164Y-23667D01*
G54D23*
X16418Y-22651D02*
X15318Y-22651D01*
X15318Y-22651D02*
X15308Y-22661D01*
X22165Y-29344D02*
X22165Y-30135D01*
X22165Y-30135D02*
X21880Y-30420D01*
G54D24*
X21642Y-27474D02*
X21642Y-29195D01*
X21791Y-29344D02*
X22165Y-29344D01*
X21642Y-29195D02*
X21791Y-29344D01*
G54D23*
X17965Y-17192D02*
X16599Y-17192D01*
X16599Y-17192D02*
X16597Y-17194D01*
X16420Y-15270D02*
X15392Y-15270D01*
X15392Y-15270D02*
X14860Y-15802D01*
X16420Y-15270D02*
X16420Y-17017D01*
X16420Y-17017D02*
X16597Y-17194D01*
X16477Y-36648D02*
X16477Y-34941D01*
X16477Y-34941D02*
X16690Y-34728D01*
X16477Y-36648D02*
X15207Y-36648D01*
X15207Y-36648D02*
X14687Y-36128D01*
X16690Y-34728D02*
X18053Y-34728D01*
X18053Y-34728D02*
X18057Y-34724D01*
X16507Y-31928D02*
X16507Y-33545D01*
X16507Y-33545D02*
X16690Y-33728D01*
X16507Y-31928D02*
X15057Y-31928D01*
X15057Y-31928D02*
X14687Y-32298D01*
X16690Y-33728D02*
X18053Y-33728D01*
X18053Y-33728D02*
X18057Y-33724D01*
X17965Y-18192D02*
X16599Y-18192D01*
X16599Y-18192D02*
X16597Y-18194D01*
X16445Y-19962D02*
X15290Y-19962D01*
X15290Y-19962D02*
X14875Y-19547D01*
X16445Y-19962D02*
X16445Y-18346D01*
X16445Y-18346D02*
X16597Y-18194D01*
X21240Y-36825D02*
X22090Y-36825D01*
X22090Y-36825D02*
X22095Y-36820D01*
X26670Y-15792D02*
X26670Y-17474D01*
X26670Y-17474D02*
X26460Y-17684D01*
X26670Y-15792D02*
X27730Y-15792D01*
X27730Y-15792D02*
X28230Y-16292D01*
X24940Y-17666D02*
X26442Y-17666D01*
X26442Y-17666D02*
X26460Y-17684D01*
X26650Y-20402D02*
X26650Y-18874D01*
X26650Y-18874D02*
X26460Y-18684D01*
X26650Y-20402D02*
X27900Y-20402D01*
X27900Y-20402D02*
X28260Y-20042D01*
X24940Y-18666D02*
X26442Y-18666D01*
X26442Y-18666D02*
X26460Y-18684D01*
X26579Y-32294D02*
X26579Y-34068D01*
X26579Y-34068D02*
X26432Y-34215D01*
X26579Y-32294D02*
X27869Y-32294D01*
X27869Y-32294D02*
X28344Y-32769D01*
X24981Y-34217D02*
X26430Y-34217D01*
X26430Y-34217D02*
X26432Y-34215D01*
X16418Y-21651D02*
X15298Y-21651D01*
X15298Y-21651D02*
X15293Y-21656D01*
G54D24*
X19734Y-25566D02*
X19511Y-25566D01*
X17001Y-21651D02*
X16418Y-21651D01*
X17400Y-22050D02*
X17001Y-21651D01*
X17400Y-23455D02*
X17400Y-22050D01*
X19511Y-25566D02*
X17400Y-23455D01*
G54D23*
X26579Y-37094D02*
X26579Y-35362D01*
X26579Y-35362D02*
X26432Y-35215D01*
X26579Y-37094D02*
X27914Y-37094D01*
X27914Y-37094D02*
X28344Y-36664D01*
X24981Y-35217D02*
X26430Y-35217D01*
X26430Y-35217D02*
X26432Y-35215D01*
X26615Y-22570D02*
X27605Y-22570D01*
G54D24*
X21052Y-27474D02*
X21052Y-28494D01*
X21143Y-34724D02*
X20557Y-34724D01*
X21518Y-34349D02*
X21143Y-34724D01*
X21518Y-33322D02*
X21518Y-34349D01*
X20489Y-32293D02*
X21518Y-33322D01*
X20489Y-29057D02*
X20489Y-32293D01*
X21052Y-28494D02*
X20489Y-29057D01*
X20856Y-27474D02*
X20856Y-28375D01*
X21203Y-33724D02*
X20557Y-33724D01*
X21299Y-33628D02*
X21203Y-33724D01*
X21299Y-33485D02*
X21299Y-33628D01*
X20241Y-32427D02*
X21299Y-33485D01*
X20241Y-28990D02*
X20241Y-32427D01*
X20856Y-28375D02*
X20241Y-28990D01*
X19734Y-25959D02*
X19029Y-25959D01*
X17322Y-24252D02*
X16442Y-24252D01*
X19029Y-25959D02*
X17322Y-24252D01*
G54D23*
X14616Y-24313D02*
X14616Y-25059D01*
X14616Y-25059D02*
X14594Y-25081D01*
X16442Y-24252D02*
X14677Y-24252D01*
X14677Y-24252D02*
X14616Y-24313D01*
G54D22*
X21255Y-37710D02*
X21230Y-37710D01*
X21230Y-37710D02*
X20605Y-38335D01*
X19970Y-37700D02*
X19970Y-37345D01*
X19970Y-37345D02*
X20490Y-36825D01*
X19150Y-37700D02*
X19970Y-37700D01*
X19970Y-37700D02*
X20605Y-38335D01*
X20605Y-38335D02*
X21390Y-39120D01*
G54D23*
X24580Y-24580D02*
X25635Y-24580D01*
X25635Y-24580D02*
X26035Y-24180D01*
G54D24*
X22960Y-24779D02*
X24381Y-24779D01*
X24381Y-24779D02*
X24580Y-24580D01*
G54D23*
X21317Y-20309D02*
X20101Y-20309D01*
X20101Y-20309D02*
X18956Y-21454D01*
X18956Y-21454D02*
X18956Y-22032D01*
X22936Y-28902D02*
X23556Y-28902D01*
X23556Y-28902D02*
X23856Y-28602D01*
X16457Y-26992D02*
X17162Y-26992D01*
X17162Y-26992D02*
X17590Y-26564D01*
X16442Y-25252D02*
X17062Y-25252D01*
X17711Y-26685D02*
X18120Y-26685D01*
X17521Y-26495D02*
X17590Y-26564D01*
X17590Y-26564D02*
X17711Y-26685D01*
X17521Y-25711D02*
X17521Y-26495D01*
X17062Y-25252D02*
X17521Y-25711D01*
G54D24*
X19734Y-26352D02*
X18990Y-26352D01*
X18990Y-26352D02*
X18657Y-26685D01*
X18657Y-26685D02*
X18120Y-26685D01*
X19212Y-23660D02*
X19920Y-23660D01*
X20265Y-24005D02*
X20265Y-24248D01*
X19920Y-23660D02*
X20265Y-24005D01*
X20265Y-24248D02*
X20265Y-24665D01*
X20265Y-24665D02*
X20379Y-24779D01*
X20379Y-24779D02*
X22439Y-24779D01*
X22439Y-24779D02*
X22960Y-24779D01*
G54D23*
X22936Y-28483D02*
X22936Y-28902D01*
X22936Y-28902D02*
X22936Y-29323D01*
X22936Y-29323D02*
X22915Y-29344D01*
G54D24*
X22429Y-27474D02*
X22429Y-27728D01*
X22936Y-28039D02*
X22936Y-28483D01*
X22834Y-27937D02*
X22936Y-28039D01*
X22638Y-27937D02*
X22834Y-27937D01*
X22429Y-27728D02*
X22638Y-27937D01*
G54D23*
X16442Y-25252D02*
X15866Y-25252D01*
X15287Y-25831D02*
X14594Y-25831D01*
X15866Y-25252D02*
X15287Y-25831D01*
X22845Y-36820D02*
X23500Y-36820D01*
X23500Y-36820D02*
X23852Y-37172D01*
X22005Y-37710D02*
X22644Y-37710D01*
X22644Y-37710D02*
X22979Y-38045D01*
X28355Y-22570D02*
X29469Y-22570D01*
X29469Y-22570D02*
X29490Y-22591D01*
G54D22*
X22390Y-39120D02*
X23835Y-39120D01*
X23835Y-39120D02*
X23850Y-39135D01*
X22390Y-39120D02*
X22390Y-38635D01*
X22390Y-38635D02*
X22979Y-38045D01*
X22979Y-38045D02*
X23852Y-37172D01*
X23852Y-37172D02*
X24238Y-36787D01*
X19460Y-35960D02*
X23650Y-35960D01*
X23650Y-35960D02*
X23850Y-35760D01*
G54D23*
X17655Y-29750D02*
X17655Y-30966D01*
X17655Y-30966D02*
X17709Y-31020D01*
X16450Y-29739D02*
X16450Y-30972D01*
X16450Y-30972D02*
X16402Y-31020D01*
G54D24*
X22960Y-24976D02*
X22505Y-24976D01*
X22505Y-24976D02*
X21325Y-26156D01*
X19734Y-26156D02*
X18825Y-26156D01*
X18604Y-25935D02*
X18120Y-25935D01*
X18825Y-26156D02*
X18604Y-25935D01*
X22960Y-24976D02*
X23685Y-24976D01*
X27035Y-25780D02*
X27035Y-24180D01*
X26824Y-25991D02*
X27035Y-25780D01*
X24700Y-25991D02*
X26824Y-25991D01*
X23685Y-24976D02*
X24700Y-25991D01*
X20462Y-24248D02*
X20462Y-23822D01*
X18462Y-23244D02*
X18462Y-23660D01*
X18564Y-23142D02*
X18462Y-23244D01*
X19782Y-23142D02*
X18564Y-23142D01*
X20462Y-23822D02*
X19782Y-23142D01*
G54D23*
X17423Y-20860D02*
X17423Y-21336D01*
X18125Y-23660D02*
X18462Y-23660D01*
X17790Y-23325D02*
X18125Y-23660D01*
X17790Y-21703D02*
X17790Y-23325D01*
X17423Y-21336D02*
X17790Y-21703D01*
G54D24*
X19734Y-26156D02*
X21325Y-26156D01*
X21325Y-26156D02*
X21354Y-26156D01*
X21354Y-26156D02*
X22232Y-27034D01*
X22232Y-27034D02*
X22232Y-27474D01*
X22232Y-27474D02*
X22232Y-28437D01*
X22232Y-28437D02*
X22186Y-28483D01*
G54D22*
X22800Y-31800D02*
X23356Y-31800D01*
X23356Y-31800D02*
X23850Y-32294D01*
X13635Y-29505D02*
X13635Y-30061D01*
X13635Y-30061D02*
X13635Y-30625D01*
X13635Y-30625D02*
X14030Y-31020D01*
X13635Y-29505D02*
X13635Y-28296D01*
G54D23*
X13635Y-29505D02*
X13630Y-29500D01*
G54D22*
X14030Y-31020D02*
X16402Y-31020D01*
X16402Y-31020D02*
X17709Y-31020D01*
X17709Y-31020D02*
X18600Y-31020D01*
X13635Y-28296D02*
X13635Y-26982D01*
X18600Y-31020D02*
X19250Y-31670D01*
X13635Y-26982D02*
X13635Y-26550D01*
X19250Y-31670D02*
X19250Y-31984D01*
X13635Y-26550D02*
X13635Y-23573D01*
G54D23*
X19194Y-31928D02*
X19250Y-31984D01*
G54D22*
X19250Y-31984D02*
X19250Y-34197D01*
G54D23*
X13645Y-23563D02*
X13635Y-23573D01*
G54D22*
X13635Y-23573D02*
X13635Y-22606D01*
G54D23*
X19277Y-34224D02*
X19250Y-34197D01*
G54D22*
X19250Y-34197D02*
X19250Y-35750D01*
X13635Y-21705D02*
X13635Y-21345D01*
X13635Y-21345D02*
X14120Y-20860D01*
G54D23*
X13872Y-21656D02*
X13635Y-21893D01*
X13690Y-22661D02*
X13635Y-22606D01*
G54D22*
X13635Y-22606D02*
X13635Y-21893D01*
X13635Y-21893D02*
X13635Y-21705D01*
X13635Y-21705D02*
X13650Y-21690D01*
X19250Y-35750D02*
X19460Y-35960D01*
X19460Y-35960D02*
X19465Y-35965D01*
X14120Y-20860D02*
X17423Y-20860D01*
X17423Y-20860D02*
X17530Y-20860D01*
X18782Y-36648D02*
X19465Y-35965D01*
X17530Y-20860D02*
X17745Y-20645D01*
X24545Y-37094D02*
X24238Y-36787D01*
X24238Y-36787D02*
X24375Y-36924D01*
X24375Y-36924D02*
X23955Y-36504D01*
X23955Y-36504D02*
X23530Y-36079D01*
X25279Y-37094D02*
X24545Y-37094D01*
X23530Y-36079D02*
X23850Y-35760D01*
X23850Y-35760D02*
X23850Y-34731D01*
G54D23*
X23836Y-34717D02*
X23850Y-34731D01*
G54D22*
X23850Y-34731D02*
X23850Y-32294D01*
G54D23*
X27035Y-24180D02*
X29361Y-24180D01*
X29361Y-24180D02*
X29490Y-24051D01*
G54D22*
X29490Y-25995D02*
X29490Y-26617D01*
X29490Y-26617D02*
X29490Y-30650D01*
X29490Y-30650D02*
X28920Y-31220D01*
X28920Y-31220D02*
X25720Y-31220D01*
X29490Y-25890D02*
X29490Y-25995D01*
X29490Y-23471D02*
X29490Y-24051D01*
X29490Y-24051D02*
X29490Y-25890D01*
X29490Y-22773D02*
X29490Y-22591D01*
X29490Y-22591D02*
X29490Y-23471D01*
X25720Y-31220D02*
X25470Y-31470D01*
X29490Y-21950D02*
X29490Y-22773D01*
G54D23*
X20465Y-17692D02*
X19556Y-17692D01*
X19556Y-17692D02*
X19495Y-17753D01*
G54D25*
X21510Y-16002D02*
X21510Y-19320D01*
X23644Y-21454D02*
X23644Y-22054D01*
X21510Y-19320D02*
X23644Y-21454D01*
G54D22*
X25279Y-31661D02*
X25279Y-32294D01*
X25470Y-31470D02*
X25279Y-31661D01*
G54D23*
X22440Y-18166D02*
X23626Y-18166D01*
X23626Y-18166D02*
X23650Y-18142D01*
X22481Y-34717D02*
X23836Y-34717D01*
X20557Y-34224D02*
X19277Y-34224D01*
G54D22*
X17777Y-36648D02*
X18782Y-36648D01*
G54D23*
X17807Y-31928D02*
X19194Y-31928D01*
G54D22*
X25350Y-20402D02*
X25350Y-21020D01*
X28750Y-21210D02*
X29490Y-21950D01*
X25540Y-21210D02*
X28750Y-21210D01*
X25350Y-21020D02*
X25540Y-21210D01*
X23650Y-16002D02*
X23650Y-18142D01*
X23650Y-18142D02*
X23650Y-19300D01*
X24752Y-20402D02*
X25350Y-20402D01*
X23650Y-19300D02*
X24752Y-20402D01*
X19495Y-16002D02*
X21510Y-16002D01*
X21510Y-16002D02*
X23650Y-16002D01*
X23650Y-16002D02*
X23668Y-16002D01*
X23878Y-15792D02*
X25370Y-15792D01*
X23668Y-16002D02*
X23878Y-15792D01*
X17745Y-19962D02*
X18558Y-19962D01*
X18763Y-15270D02*
X17720Y-15270D01*
X19495Y-16002D02*
X18763Y-15270D01*
X19495Y-19025D02*
X19495Y-17753D01*
X19495Y-17753D02*
X19495Y-16002D01*
X18558Y-19962D02*
X19495Y-19025D01*
X17745Y-20645D02*
X17745Y-19962D01*
G54D23*
X14543Y-21656D02*
X13872Y-21656D01*
X14558Y-22661D02*
X13690Y-22661D01*
X14616Y-23563D02*
X13645Y-23563D01*
G54D22*
X23850Y-32294D02*
X25279Y-32294D01*
M02*
